<svg id="Layer_1" data-name="Layer 1" xmlns="http://www.w3.org/2000/svg" xmlns:xlink="http://www.w3.org/1999/xlink" width="239.6" height="52" viewBox="0 0 239.6 52"><defs><style>.cls-1{fill:none;}.cls-2{clip-path:url(#clip-path);}.cls-3{fill:#62ad6d;}.cls-4{fill:#007dc4;}.cls-5{fill:#8bc53f;}</style><clipPath id="clip-path" transform="translate(-1.9 -0.6)"><rect class="cls-1" x="1.9" y="0.6" width="239.6" height="52"/></clipPath></defs><title>file-assist</title><g class="cls-2"><path class="cls-3" d="M62.3,52.6h2.4S96.1,44.8,92,10L83.5,21.3s1.6,21-21.2,31.3" transform="translate(-1.9 -0.6)"/><path class="cls-4" d="M79.8,12.9A33.3,33.3,0,0,0,74.5.6l-5.2,9.8A19.8,19.8,0,0,0,52.4.6c-8,0-14.8,4.9-18.1,12.1a13.9,13.9,0,0,0-6.9-1.8A15,15,0,0,0,12.5,26C6.3,27.8,1.9,32.9,1.9,38.9c0,7.5,7,13.6,15.6,13.6h2.1C13.4,51.6,8.7,47,8.7,41.5s4.2-9.6,9.8-10.8a1.5,1.5,0,0,1-.1-.7A10.4,10.4,0,0,1,28.6,19.5a9.9,9.9,0,0,1,6.8,2.7,19.1,19.1,0,0,1,15.9-8.6A19.5,19.5,0,0,1,70.5,31.8a7.2,7.2,0,0,1,.1,1.7A19.7,19.7,0,0,1,57,52.5h.3A34.3,34.3,0,0,0,66,48.8a26.3,26.3,0,0,0,4.9-3.9A28.3,28.3,0,0,0,76,38.2a32.4,32.4,0,0,0,3.9-10.8,30.8,30.8,0,0,0,.7-6.8,38.7,38.7,0,0,0-.8-7.7" transform="translate(-1.9 -0.6)"/><path class="cls-5" d="M69.9,52.6h5.9s21.6-6.9,28.6-25.2L90.9,34.9s-4.2,10-21,17.7" transform="translate(-1.9 -0.6)"/></g><polygon class="cls-4" points="112.6 26.7 107.5 51 112.3 51 114.6 40.5 122.7 40.5 123.6 36.4 115.4 36.4 116.7 30.7 125.3 30.7 126.2 26.7 112.6 26.7"/><path class="cls-4" d="M129,33.3l-3.9,18.2h4.7l3.9-18.2Zm1.3-6.3-.8,4h4.6l.9-4Z" transform="translate(-1.9 -0.6)"/><polygon class="cls-4" points="136.5 26.7 131.4 51 136.1 51 141.2 26.7 136.5 26.7"/><g class="cls-2"><path class="cls-4" d="M152.3,40.3c.5-2.7.5-4.3-1.4-4.3s-2.9,1.9-3.2,3.6l-.2.7ZM147,43.1l-.4,1.5c-.4,2.1-.3,4.2,1.4,4.2s2.5-1.2,3.2-3.4h4.2c-1,4.2-3.6,6.6-8,6.6-6.8,0-5.9-5.2-5-9.8s3-9.4,9.3-9.4,5.9,3.7,4.7,9.3l-.2,1Z" transform="translate(-1.9 -0.6)"/></g><path class="cls-4" d="M169,31.5h0V42.4h-4.8Zm-2.1-4.2L155.3,51.6h5.1l2.2-5.2h6.5v5.2h5.1l-1.3-24.3Z" transform="translate(-1.9 -0.6)"/><g class="cls-2"><path class="cls-4" d="M180.5,45.6l-.2.6c-.3,1.6.3,2.6,1.9,2.6a2.8,2.8,0,0,0,2.9-2.1,1.8,1.8,0,0,0-1.3-2.1l-3-1.2c-2.4-.9-3.4-2.5-2.9-5.1s3.1-5.5,7.9-5.5,5.9,1.9,5.2,5.2l-.2.7h-4.2a3.3,3.3,0,0,0,0-2c-.2-.5-.7-.7-1.5-.7a2.6,2.6,0,0,0-2.6,2c-.2.8.1,1.6,1.6,2.1l2.6,1c2.8.9,3.5,2.4,2.9,5.2s-4.1,5.7-8,5.7-6.2-2.3-5.5-5.8v-.6Z" transform="translate(-1.9 -0.6)"/><path class="cls-4" d="M195.5,45.6v.6c-.3,1.6.3,2.6,1.9,2.6a2.8,2.8,0,0,0,2.9-2.1,1.8,1.8,0,0,0-1.3-2.1l-3.1-1.2a4.1,4.1,0,0,1-2.8-5.1c.7-3,3.1-5.5,7.9-5.5s5.8,1.9,5.2,5.2l-.2.7h-4.2a2.6,2.6,0,0,0-.1-2c-.2-.5-.6-.7-1.4-.7a2.5,2.5,0,0,0-2.6,2c-.2.8.1,1.6,1.6,2.1l2.6,1c2.7.9,3.5,2.4,2.9,5.2s-4.1,5.7-8,5.7-6.3-2.3-5.5-5.8v-.6Z" transform="translate(-1.9 -0.6)"/></g><path class="cls-4" d="M210,33.3l-3.9,18.2h4.7l3.9-18.2Zm1.3-6.3-.8,4h4.6l.9-4Z" transform="translate(-1.9 -0.6)"/><g class="cls-2"><path class="cls-4" d="M218.8,45.6v.6c-.4,1.6.2,2.6,1.8,2.6a2.7,2.7,0,0,0,2.9-2.1,1.7,1.7,0,0,0-1.3-2.1l-3-1.2c-2.4-.9-3.4-2.5-2.8-5.1s3-5.5,7.8-5.5,5.9,1.9,5.2,5.2l-.2.7h-4.2a3.3,3.3,0,0,0,0-2c-.2-.5-.7-.7-1.5-.7a2.6,2.6,0,0,0-2.6,2c-.2.8.1,1.6,1.6,2.1l2.6,1c2.8.9,3.5,2.4,2.9,5.2s-4,5.7-8,5.7-6.2-2.3-5.5-5.8l.2-.6Z" transform="translate(-1.9 -0.6)"/><path class="cls-4" d="M235.2,28h4.7l-1.2,5.3h2.8l-.7,3.2h-2.7L236,46.4c-.3,1.4-.1,2,1.2,2h1.1l-.7,3.3-3.1.2c-3.7,0-4.1-1.2-3.3-4.9l2.2-10.4H231l.7-3.2h2.4Z" transform="translate(-1.9 -0.6)"/></g></svg>