<svg id="Layer_1" data-name="Layer 1" xmlns="http://www.w3.org/2000/svg" width="628.4" height="58.6" viewBox="0 0 628.4 58.6"><defs><style>.cls-1{fill:#1f140f;}.cls-2{fill:none;}.cls-3,.cls-5{fill:#0091c5;}.cls-4{isolation:isolate;}.cls-5{mix-blend-mode:multiply;}</style></defs><title>accurioprocloudeye</title><path class="cls-1" d="M626.9,30.8c2.4,0,4.3-1.6,4.3-3.6V22.9c0-3.7-3.6-6.7-8-6.7h-9.6c-4.4,0-8,3-8,6.7V35.1c0,3.7,3.6,6.7,8,6.7H630V38.1H613.6c-2,0-3.7-1.3-3.7-3V30.8Zm-17-7.9c0-1.7,1.7-3.1,3.7-3.1h9.6a3.4,3.4,0,0,1,3.6,3.1v3.7c0,.3-.3.5-.7.5H609.9Z" transform="translate(-2.8 4.6)"/><polygon points="588.4 31.9 588.4 31.9 584.9 39 575.9 20.8 571.1 20.8 582.5 43.9 576.7 55.6 581.5 55.6 584.9 48.7 584.9 48.7 598.6 20.8 593.9 20.8 588.4 31.9"/><path d="M454.6,16.1h-2.7c-3.3,0-6.7.2-9.1,2.4s-3.2,5.4-3.2,10.5,1.1,8.5,3.2,10.4,5.8,2.4,9.1,2.4h2.8c3.2,0,6.7-.1,9-2.3s3.2-5.5,3.2-10.5-1-8.6-3.1-10.5S457.9,16.1,454.6,16.1ZM460.5,37c-1.1,1-2.9,1.2-5.8,1.2h-2.8c-3,0-4.8-.2-5.9-1.2s-2-2.7-2-8,1.3-7.3,2-8,2.9-1.2,5.9-1.2h2.7c3,0,4.8.2,5.9,1.2s2,2.6,2,8S461.3,36.3,460.5,37Z" transform="translate(-2.8 4.6)"/><path d="M497.6,31.4V16.1h-4.4V31.4a6.8,6.8,0,0,1-7,6.7h-1.8a6.9,6.9,0,0,1-7.1-6.7V16.1H473V31.4c0,5.8,5.1,10.4,11.4,10.4h1.8C492.5,41.8,497.6,37.2,497.6,31.4Z" transform="translate(-2.8 4.6)"/><rect x="426.4" y="11.7" width="4.4" height="34.8"/><path d="M411.8,41.9h11.4V38.2H411.8c-4.1,0-8-.2-10.2-2s-3.4-4.4-3.4-11.7,1.9-10.4,3.4-11.7,6.1-2,10.2-2h11.4V7.1H411.8c-5.1,0-9.9.2-13.3,3.1s-4.7,7.3-4.7,14.3,1.6,11.7,4.7,14.3S406.9,41.9,411.8,41.9Z" transform="translate(-2.8 4.6)"/><polygon points="568.9 42.8 544.6 42.8 544.6 31 565.8 31 565.8 27.3 544.6 27.3 544.6 15.4 568.9 15.4 568.9 11.7 540.2 11.7 540.2 46.5 568.9 46.5 568.9 42.8"/><path d="M526.6,17.5c-2.3-1.3-5.1-1.5-7.9-1.5h-2.8c-3.3,0-6.7.2-9.1,2.4s-3.1,5.4-3.1,10.5,1,8.5,3.1,10.5,5.8,2.4,9.1,2.4h2.8c2.8,0,5.6-.2,7.9-1.5v1.5H531V7h-4.4Zm-2.1,19.4c-1,1-2.9,1.2-5.8,1.2h-2.8c-2.9,0-4.7-.2-5.8-1.2s-2.1-2.7-2.1-8,1.3-7.3,2.1-8,2.9-1.2,5.8-1.2h2.8c2.9,0,4.8.2,5.8,1.2s2.1,2.7,2.1,8S525.3,36.2,524.5,36.9Z" transform="translate(-2.8 4.6)"/><rect class="cls-2" width="381" height="58.64"/><path class="cls-1" d="M58.9,41.9h7.3L55.6,16.5c-.3-.5-.5-1.1-.8-1.7a12.5,12.5,0,0,0-3.4-5.6C49.3,7.6,46.3,7.3,42,7.3h-.7c-4.2,0-7.3.3-9.3,1.9s-2.7,3.6-3.5,5.6-.5,1.2-.7,1.7L17.2,41.9h7.2L29,31H54.3ZM31.5,25.1l3.6-8.6a5,5,0,0,1,1.5-2.6c.9-.7,2.8-.8,4.7-.8h.8c1.9,0,3.8.1,4.7.8a5,5,0,0,1,1.5,2.6l3.6,8.6Z" transform="translate(-2.8 4.6)"/><path class="cls-1" d="M196,19.1v-6h-7.2c-3.9,0-8.1.2-11.4,2.9s-4.2,6.2-4.2,11.6V41.9h7.3V27.5c0-3.4.2-5.1,2.1-6.7a8.1,8.1,0,0,1,4.4-1.6h9Z" transform="translate(-2.8 4.6)"/><path class="cls-1" d="M83,41.9c-3.7,0-8.1-.2-11.3-2.9s-4.3-6.1-4.3-11.5,1.4-9.2,4.3-11.6S79.1,13,83,13H96.2v6.1H83c-2.5,0-4.9.1-6.2,1.2s-2.1,4.7-2.1,7.2.4,5.7,2.1,7.2,3.7,1.1,6.2,1.1H96.2v6.1Z" transform="translate(-2.8 4.6)"/><path class="cls-1" d="M129.7,41.9V35.8H116.4c-2.5,0-4.8,0-6.1-1.1s-2.1-4.7-2.1-7.2.4-5.8,2.1-7.2,3.6-1.2,6.1-1.2h13.3V13H116.5c-3.9,0-8.1.2-11.4,2.9s-4.2,6.2-4.2,11.6,1.4,9.1,4.2,11.5,7.6,2.9,11.4,2.9Z" transform="translate(-2.8 4.6)"/><rect class="cls-1" x="198.5" y="17.7" width="7.3" height="28.92"/><rect class="cls-1" x="198.4" y="7.1" width="7.3" height="6.1"/><path class="cls-1" d="M152.5,42.3c6.2,0,8.5-1,11.4-3.5s3.6-7.1,3.5-10.7V13h-7.2V28.2c0,2.7,0,5-1.4,6.3h-.1c-1.3,1.1-2.2,1.7-6.2,1.7h-1.9c-4,0-4.9-.6-6.2-1.7h-.1c-1.4-1.3-1.4-3.6-1.4-6.3V13h-7.2V28.1c0,3.6-.1,7.6,3.5,10.7s5.2,3.5,11.4,3.5Z" transform="translate(-2.8 4.6)"/><path class="cls-1" d="M234,42.3h-5c-6.1-.3-14.2-2-14.2-14.5s8.1-14.3,14.2-14.6h10c6.1.3,14.2,2,14.2,14.6S245.1,41.9,239,42.2h-5m0-23.1h-4.7c-3.6.2-7.1.3-7.1,8.4s3.5,8.2,7.1,8.3h9.3c3.7-.1,7.1-.3,7.1-8.3s-3.4-8.2-7.1-8.4H234" transform="translate(-2.8 4.6)"/><path class="cls-3" d="M321.4,19.1c-2.5,0-4.7.4-6.2,1.5s-3,4.3-3.4,6.8l-2.5,14.5h-7.2l2.4-14.5c.9-5.4,2.9-9.1,6.2-11.5s7.9-2.9,11.8-2.9h7.2l-1,6.1Z" transform="translate(-2.8 4.6)"/><g class="cls-4"><path class="cls-5" d="M357.3,13.1h-10c-6.1.2-14.5,2-16.6,14.4s5.7,14.3,11.7,14.5h10.1c6.1-.2,14.5-2,16.6-14.5S363.4,13.3,357.3,13.1Zm4.3,14.4c-1.3,8-4.8,8.2-8.4,8.3h-9.3c-3.7-.1-7.1-.3-5.8-8.3s4.9-8.1,8.5-8.2h9.3C359.6,19.4,363,19.5,361.6,27.5Z" transform="translate(-2.8 4.6)"/></g><path class="cls-3" d="M298.6,11A13.7,13.7,0,0,0,289,7.4H264a.2.2,0,0,0-.2.2L258,42h8.1l1.7-10.4h18.3c7.5,0,14.2-4.9,15.2-11.2l.2-.8A9.9,9.9,0,0,0,298.6,11Zm-5,7.6v.9c-.5,2.9-3.9,5.5-7.5,5.5H269l1.8-10.9H289a5.3,5.3,0,0,1,3.6,1.3A3.7,3.7,0,0,1,293.6,18.6Z" transform="translate(-2.8 4.6)"/></svg>