<svg id="Layer_1" data-name="Layer 1" xmlns="http://www.w3.org/2000/svg" xmlns:xlink="http://www.w3.org/1999/xlink" width="33.6" height="52" viewBox="0 0 33.6 52"><defs><style>.cls-1{fill:url(#radial-gradient);}.cls-2{fill:url(#radial-gradient-2);}.cls-3{fill:url(#linear-gradient);}.cls-4{fill:url(#linear-gradient-2);}.cls-5{fill:url(#radial-gradient-3);}.cls-6{fill:url(#linear-gradient-3);}.cls-7{fill:#112a4c;}.cls-8{fill:#003d68;}.cls-9{fill:url(#linear-gradient-4);}.cls-10{fill:url(#linear-gradient-5);}.cls-11{fill:url(#linear-gradient-6);}.cls-12{fill:url(#linear-gradient-7);}.cls-13{fill:#051e33;}.cls-14{fill:#191718;}.cls-15{fill:url(#radial-gradient-4);}.cls-16{fill:url(#linear-gradient-8);}.cls-17{fill:url(#linear-gradient-9);}.cls-18{fill:url(#linear-gradient-10);}.cls-19{fill:url(#linear-gradient-11);}</style><radialGradient id="radial-gradient" cx="-109.16" cy="471.96" r="0.12" gradientTransform="matrix(124, 56.5, 56.5, -124, -12886.04, 64709.02)" gradientUnits="userSpaceOnUse"><stop offset="0" stop-color="#d0d2d3"/><stop offset="1" stop-color="#6e6f71"/></radialGradient><radialGradient id="radial-gradient-2" cx="-109.05" cy="471.77" r="0.12" gradientTransform="matrix(110.5, 49, 49, -110.5, -10823.04, 57490.52)" gradientUnits="userSpaceOnUse"><stop offset="0" stop-color="#fff"/><stop offset="1" stop-color="#a5a7aa"/></radialGradient><linearGradient id="linear-gradient" x1="-109.1" y1="473.77" x2="-108.98" y2="473.77" gradientTransform="matrix(-69.5, 128.5, 128.5, 69.5, -68216.52, -18888.54)" xlink:href="#radial-gradient-2"/><linearGradient id="linear-gradient-2" x1="-108.26" y1="473.01" x2="-108.14" y2="473.01" gradientTransform="matrix(0, 101.12, 101.12, 0, -47580.58, 10965.06)" gradientUnits="userSpaceOnUse"><stop offset="0" stop-color="#989898"/><stop offset="1" stop-color="#59595c"/></linearGradient><radialGradient id="radial-gradient-3" cx="-109.68" cy="472.99" r="0.12" gradientTransform="matrix(178.67, 248.67, 248.67, -178.67, -97778.43, 111811.05)" gradientUnits="userSpaceOnUse"><stop offset="0" stop-color="#f1f1f1"/><stop offset="1" stop-color="#59595c"/></radialGradient><linearGradient id="linear-gradient-3" x1="-109.72" y1="472.99" x2="-109.6" y2="472.99" gradientTransform="matrix(22.45, 278.91, 278.91, -22.45, -129209.03, 41250.74)" gradientUnits="userSpaceOnUse"><stop offset="0" stop-color="#323030"/><stop offset="1" stop-color="#f1f1f1"/></linearGradient><linearGradient id="linear-gradient-4" x1="-109.55" y1="473.02" x2="-109.43" y2="473.02" gradientTransform="matrix(64, 126.5, 126.5, -64, -52580.27, 44164.8)" gradientUnits="userSpaceOnUse"><stop offset="0" stop-color="#2ba6de"/><stop offset="1" stop-color="#007dc4"/></linearGradient><linearGradient id="linear-gradient-5" x1="-109.47" y1="473.54" x2="-109.35" y2="473.54" gradientTransform="matrix(-140.28, -72.16, -72.16, 140.28, 19077.63, -74290.06)" gradientUnits="userSpaceOnUse"><stop offset="0" stop-color="#e3e3e4"/><stop offset="1" stop-color="#828385"/></linearGradient><linearGradient id="linear-gradient-6" x1="235.23" y1="38.08" x2="240.71" y2="55.62" gradientTransform="matrix(1, 0, 0, 1, 0, 0)" xlink:href="#linear-gradient-5"/><linearGradient id="linear-gradient-7" x1="-109.19" y1="473.41" x2="-109.07" y2="473.41" gradientTransform="matrix(157, -220.5, -220.5, -157, 121774.27, 50323.34)" gradientUnits="userSpaceOnUse"><stop offset="0" stop-color="#323030"/><stop offset="1" stop-color="#828385"/></linearGradient><radialGradient id="radial-gradient-4" cx="-109.88" cy="473.06" r="0.12" gradientTransform="matrix(53.67, 123, 123, -53.67, -52041.42, 38942.82)" gradientUnits="userSpaceOnUse"><stop offset="0" stop-color="#e3e3e4"/><stop offset="1" stop-color="#59595c"/></radialGradient><linearGradient id="linear-gradient-8" x1="-110.2" y1="472.71" x2="-110.08" y2="472.71" gradientTransform="matrix(16.96, 31.26, 31.26, -16.96, -12656.57, 11503.25)" gradientUnits="userSpaceOnUse"><stop offset="0" stop-color="#b6b9bb"/><stop offset="1" stop-color="#323030"/></linearGradient><linearGradient id="linear-gradient-9" x1="-109.66" y1="473.41" x2="-109.54" y2="473.41" gradientTransform="matrix(19.69, 36.29, 36.29, -19.69, -14774.71, 13341.81)" gradientUnits="userSpaceOnUse"><stop offset="0" stop-color="#fff"/><stop offset="1" stop-color="#59595c"/></linearGradient><linearGradient id="linear-gradient-10" x1="-128.99" y1="472.9" x2="-128.87" y2="472.9" gradientTransform="matrix(0, 4.94, 4.94, 0, -2318.33, 675.34)" gradientUnits="userSpaceOnUse"><stop offset="0" stop-color="#323030"/><stop offset="1" stop-color="#4e4d50"/></linearGradient><linearGradient id="linear-gradient-11" x1="-108.64" y1="473.02" x2="-108.52" y2="473.02" gradientTransform="matrix(-22.08, -72.3, -72.3, 22.08, 31823.83, -18258.98)" gradientUnits="userSpaceOnUse"><stop offset="0" stop-color="#414141"/><stop offset="0.23" stop-color="#444"/><stop offset="0.38" stop-color="#4d4d4d"/><stop offset="0.52" stop-color="#5c5c5c"/><stop offset="0.64" stop-color="#727272"/><stop offset="0.76" stop-color="#8e8e8e"/><stop offset="0.87" stop-color="#b0b0b1"/><stop offset="0.98" stop-color="#d9d9da"/><stop offset="1" stop-color="#e3e3e4"/></linearGradient></defs><title>Lock shield</title><path class="cls-1" d="M261.7,27.2a12,12,0,1,0-24,0v6.2l4.1-2.2v-4a7.9,7.9,0,0,1,7.9-7.8,7.8,7.8,0,0,1,7.8,7.8v3.9l4.2,2.3Z" transform="translate(-233.1 -15.1)"/><path class="cls-2" d="M261.2,27.5c0-6.6-4.9-11.9-11.5-11.9s-11.5,5.3-11.5,11.9v5.6l1-.5V27.5a10.5,10.5,0,0,1,21,0v5.1l1,.5Z" transform="translate(-233.1 -15.1)"/><path class="cls-3" d="M250,16.3A11.6,11.6,0,0,0,238.4,28a10.4,10.4,0,0,1,3.2-8.5A10.9,10.9,0,0,1,250,16.3Z" transform="translate(-233.1 -15.1)"/><path class="cls-4" d="M259.6,27.3a9.9,9.9,0,0,0-19.8,0v5l1.5-.8V27.2a8.4,8.4,0,0,1,16.8,0v4.2l1.5.8Z" transform="translate(-233.1 -15.1)"/><path class="cls-5" d="M249.9,61.1s-12-6-12-24c0,0,6,0,12-6,6,6,12,6,12,6,0,18-12,24-12,24Zm0-36c-8.4,8.4-16.8,8.4-16.8,8.4,0,25.2,16.8,33.6,16.8,33.6s16.8-8.4,16.8-33.6c0,0-8.4,0-16.8-8.4Z" transform="translate(-233.1 -15.1)"/><path class="cls-6" d="M249.9,60.1s-11.2-5.6-11.2-22.4c0,0,5.6,0,11.2-5.6,5.6,5.6,11.2,5.6,11.2,5.6,0,16.8-11.2,22.4-11.2,22.4Zm0-29c-6,6-12,6-12,6,0,18,12,24,12,24s12-6,12-24c0,0-6,0-12-6Z" transform="translate(-233.1 -15.1)"/><path class="cls-7" d="M249.9,32.1c-5.6,5.6-11.2,5.6-11.2,5.6,0,16.8,11.2,22.4,11.2,22.4s11.2-5.6,11.2-22.4c0,0-5.6,0-11.2-5.6Z" transform="translate(-233.1 -15.1)"/><path class="cls-8" d="M249.9,32.3a20.2,20.2,0,0,0,7.7,4.8,10.3,10.3,0,0,0,3.4.7,33.8,33.8,0,0,1-1.8,10.4,23.1,23.1,0,0,1-3.8,6.9,21.2,21.2,0,0,1-5.5,4.9,18.3,18.3,0,0,1-5.5-4.9,25.8,25.8,0,0,1-3.9-6.9,31.1,31.1,0,0,1-1.7-10.4,10.8,10.8,0,0,0,3.4-.7A20.2,20.2,0,0,0,249.9,32.3Zm0-.4c-5.7,5.7-11.3,5.7-11.3,5.7,0,17,11.3,22.6,11.3,22.6s11.3-5.6,11.3-22.6C261.2,37.6,255.5,37.6,249.9,31.9Z" transform="translate(-233.1 -15.1)"/><path class="cls-9" d="M249.9,33.7c-5,4.9-10,4.9-10,4.9,0,14.9,10,19.9,10,19.9s9.9-5,9.9-19.9c0,0-5,0-9.9-4.9Z" transform="translate(-233.1 -15.1)"/><path class="cls-10" d="M249.9,25.6v4.5s5.9,6.4,13.1,6.3l3.2-2.4S256.3,33.2,249.9,25.6Z" transform="translate(-233.1 -15.1)"/><path class="cls-11" d="M233.8,34.1l3.6,2.7s-.6,10.1,4.9,17.4l-5.2-2.6A41.4,41.4,0,0,1,233.8,34.1Z" transform="translate(-233.1 -15.1)"/><path class="cls-12" d="M250,66.1V61.6a18.9,18.9,0,0,0,7.6-7.4l5-2.6S258.1,62.1,250,66.1Z" transform="translate(-233.1 -15.1)"/><path class="cls-13" d="M254,53.4l-1.5-7.7a3.7,3.7,0,0,0,1.4-3,3.8,3.8,0,0,0-7.6,0,4.1,4.1,0,0,0,1.4,3l-1.8,8.4v.2h8.1v-.9Z" transform="translate(-233.1 -15.1)"/><path class="cls-14" d="M253,42.6a3.1,3.1,0,1,0-6.2,0,3.3,3.3,0,0,0,1.5,2.7l-1.5,8.1H253l-1.5-8.1a3.3,3.3,0,0,0,1.5-2.7Z" transform="translate(-233.1 -15.1)"/><path class="cls-15" d="M246.8,42.6h0a3.1,3.1,0,1,1,6.2,0h0a3.3,3.3,0,0,1-1.5,2.7h0l1.5,8.1h-6.2l1.5-8.1a3.3,3.3,0,0,1-1.5-2.7Zm3.1-3.8a3.8,3.8,0,0,0-3.8,3.8,3.7,3.7,0,0,0,1.4,3l-1.4,7.7-.2.8h8l-.2-.8-1.4-7.7a3.8,3.8,0,0,0-.6-6.3,4.1,4.1,0,0,0-1.8-.5Z" transform="translate(-233.1 -15.1)"/><path class="cls-16" d="M251.6,45.3a2.8,2.8,0,0,0,1.4-2,3.2,3.2,0,0,0-.8-2.9l.9.3a3.8,3.8,0,0,1,.5,2.4,3.6,3.6,0,0,1-1.4,2.4Z" transform="translate(-233.1 -15.1)"/><path class="cls-17" d="M247.6,45.5l.6-.2a2.8,2.8,0,0,1-1.4-2,2.9,2.9,0,0,1,1.4-3.4l.3-.7a4.2,4.2,0,0,0-1.7,1.4,4.4,4.4,0,0,0-.6,2.5A4.7,4.7,0,0,0,247.6,45.5Z" transform="translate(-233.1 -15.1)"/><polygon class="cls-18" points="12.9 39 13.6 38.4 20 38.4 20.6 39 12.9 39"/><polygon class="cls-19" points="18.5 30.4 20 38.2 20.6 38.8 19.5 32.9 18.5 30.4"/></svg>