<svg id="Layer_1" data-name="Layer 1" xmlns="http://www.w3.org/2000/svg" width="207.3" height="52" viewBox="0 0 207.3 52"><defs><style>.cls-1,.cls-2{fill:#231f20;}.cls-2{opacity:0;}</style></defs><title>iManage</title><path class="cls-1" d="M21.9,7a4.6,4.6,0,0,1-.8,3,5.3,5.3,0,0,1-3.3.8,5.1,5.1,0,0,1-3.2-.8,3.8,3.8,0,0,1-.9-2.9,4.3,4.3,0,0,1,.9-3,5.1,5.1,0,0,1,3.3-.8,4.9,4.9,0,0,1,3.2.8A4.3,4.3,0,0,1,21.9,7Zm-.6,33.9c.1.2,0,.4,0,.5l-.7.4-1,.2H16.1l-1.2-.2a1,1,0,0,1-.5-.4.8.8,0,0,1-.2-.5V15.6c0-.2.1-.3.2-.5a.9.9,0,0,1,.5-.3l1.2-.2h3.5l1,.2.7.3c0,.2.1.3,0,.5Z" transform="translate(-12.5 -1.6)"/><path class="cls-1" d="M71.8,40.8a1.4,1.4,0,0,1-.2.6.9.9,0,0,1-.6.4L70,42H66.5l-1-.2-.6-.4a1.4,1.4,0,0,1-.2-.6V11h-.1L54,40.8a1.6,1.6,0,0,1-.4.7l-.6.4H47.4l-.7-.4c-.1-.2-.3-.4-.3-.6L36,11h0V40.8a1.4,1.4,0,0,1-.2.6,1,1,0,0,1-.5.4l-1.2.2H30.8l-1.2-.2-.5-.4a1.3,1.3,0,0,1-.1-.6V8.1a2.9,2.9,0,0,1,.7-2.2,2.7,2.7,0,0,1,2.1-.7h4.9a8.3,8.3,0,0,1,2.2.1,4.6,4.6,0,0,1,1.6.7l1.2,1.3a8.6,8.6,0,0,1,.7,2.1l8,21.8h.1L58.7,9.4a17.6,17.6,0,0,1,.9-2,4.1,4.1,0,0,1,1-1.3,3.5,3.5,0,0,1,1.3-.8,6.1,6.1,0,0,1,1.9-.1h5a3.3,3.3,0,0,1,1.4.1,1.6,1.6,0,0,1,.8.6,2.4,2.4,0,0,1,.6.9,5.9,5.9,0,0,1,.2,1.3Z" transform="translate(-12.5 -1.6)"/><path class="cls-1" d="M101,41a.7.7,0,0,1-.3.6l-1,.4H96.1c-.4-.1-.7-.2-.8-.4A.7.7,0,0,1,95,41V38.9a10,10,0,0,1-3.5,2.7,9.8,9.8,0,0,1-4.5.9,11.2,11.2,0,0,1-3.6-.5,8.7,8.7,0,0,1-3-1.6,6.7,6.7,0,0,1-1.9-2.5,9,9,0,0,1,.2-7.4,7.5,7.5,0,0,1,2.5-2.8,22.3,22.3,0,0,1,4.3-1.6,40.3,40.3,0,0,1,6-.4h2.4V24.2a15,15,0,0,0-.2-2.2,2.9,2.9,0,0,0-.8-1.4,3.3,3.3,0,0,0-1.4-1,6.5,6.5,0,0,0-2.4-.2,17.3,17.3,0,0,0-3.2.3l-2.4,1-1.8.8a1.9,1.9,0,0,1-1.2.4c-.3,0-.5,0-.6-.2a1,1,0,0,1-.4-.5,2.9,2.9,0,0,1-.2-.9,4.9,4.9,0,0,1-.1-1.2,6.1,6.1,0,0,1,.1-1.4,2.1,2.1,0,0,1,.6-1l1.4-.8,2.3-1,2.9-.7,3.3-.2a22.2,22.2,0,0,1,5.1.6,8,8,0,0,1,3.4,1.8,5.4,5.4,0,0,1,2,3.1A13.3,13.3,0,0,1,101,24ZM93.9,30.2H91.2a9.3,9.3,0,0,0-2.9.2,6.8,6.8,0,0,0-2,.7,2.8,2.8,0,0,0-1.1,1.3,3.2,3.2,0,0,0-.4,1.6,3.5,3.5,0,0,0,1,2.6,4,4,0,0,0,2.8.8,4.5,4.5,0,0,0,2.8-.7,9.2,9.2,0,0,0,2.5-2.3Z" transform="translate(-12.5 -1.6)"/><path class="cls-1" d="M132.3,40.9a.8.8,0,0,1-.2.5,1,1,0,0,1-.5.4l-1.2.2h-3.5l-1-.2-.6-.4a.7.7,0,0,1-.1-.5V26.4a13.3,13.3,0,0,0-.3-2.8,10.8,10.8,0,0,0-.8-1.9,4.7,4.7,0,0,0-1.3-1.1,4.1,4.1,0,0,0-1.9-.4,4.2,4.2,0,0,0-2.8,1,12.8,12.8,0,0,0-2.8,2.9V40.9a.8.8,0,0,1-.2.5.9.9,0,0,1-.6.4l-1.1.2h-3.5l-1-.2-.7-.4a.7.7,0,0,1-.1-.5V15.6a1.3,1.3,0,0,1,.1-.6l.5-.2,1-.3h2.9l1,.3.5.2c0,.2.1.4,0,.6v2.9a16.2,16.2,0,0,1,4.4-3.4A10,10,0,0,1,123,14a10.3,10.3,0,0,1,4.3.8,7.4,7.4,0,0,1,2.9,2.3,9.3,9.3,0,0,1,1.6,3.5,18.3,18.3,0,0,1,.5,4.7Z" transform="translate(-12.5 -1.6)"/><path class="cls-1" d="M160.9,41c.1.2-.1.5-.3.6a2.5,2.5,0,0,1-.9.4H156l-.8-.4a.7.7,0,0,1-.2-.6V38.9a9.5,9.5,0,0,1-3.6,2.7,9.7,9.7,0,0,1-4.4.9,12.4,12.4,0,0,1-3.8-.5,9.2,9.2,0,0,1-2.9-1.6,6,6,0,0,1-1.9-2.5,8.5,8.5,0,0,1-.6-3.6,7.3,7.3,0,0,1,.8-3.8,7.7,7.7,0,0,1,2.6-2.8,20.1,20.1,0,0,1,4.3-1.6,38.1,38.1,0,0,1,5.9-.4h2.5V24.2a7.8,7.8,0,0,0-.3-2.2,2.9,2.9,0,0,0-.8-1.4,3.1,3.1,0,0,0-1.5-1,5.5,5.5,0,0,0-2.2-.2,16.6,16.6,0,0,0-3.2.3l-2.5,1-1.8.8a2.5,2.5,0,0,1-1.2.4.7.7,0,0,1-.6-.2.5.5,0,0,1-.3-.5l-.3-.9c0-.4-.1-.8-.1-1.2a5.9,5.9,0,0,1,.2-1.4,3.1,3.1,0,0,1,.5-1,2.9,2.9,0,0,1,1.4-.8l2.3-1,2.9-.7,3.3-.2a22.2,22.2,0,0,1,5.1.6,7.8,7.8,0,0,1,3.5,1.8,7.2,7.2,0,0,1,2,3.1,16.3,16.3,0,0,1,.6,4.5Zm-7-10.8h-2.8a9.7,9.7,0,0,0-2.9.2,8,8,0,0,0-2,.7,2.8,2.8,0,0,0-1.1,1.3,3.2,3.2,0,0,0-.4,1.6,3.6,3.6,0,0,0,1.1,2.6,3.8,3.8,0,0,0,2.7.8,4.5,4.5,0,0,0,2.8-.7,9.6,9.6,0,0,0,2.6-2.3Z" transform="translate(-12.5 -1.6)"/><path class="cls-1" d="M190.9,17.3a7.6,7.6,0,0,1-.3,2.1c-.3.4-.5.6-.8.6h-3a6,6,0,0,1,.9,1.5,11,11,0,0,1,.2,1.8,9.2,9.2,0,0,1-.7,4,8.6,8.6,0,0,1-2.1,2.9,10.6,10.6,0,0,1-3.3,1.8,15.4,15.4,0,0,1-4.3.6,9.9,9.9,0,0,1-2.4-.3l-1.7-.7-.6.8a2.7,2.7,0,0,0-.3,1.2,1.7,1.7,0,0,0,.8,1.4,3.6,3.6,0,0,0,2,.6h6.1a16.8,16.8,0,0,1,3.9.7,7.6,7.6,0,0,1,2.8,1.5,5.8,5.8,0,0,1,1.8,2.3,7.3,7.3,0,0,1,.6,3,9.4,9.4,0,0,1-.8,3.6,8.4,8.4,0,0,1-2.5,2.8,12.5,12.5,0,0,1-4.2,2,21.7,21.7,0,0,1-5.7.6,21.2,21.2,0,0,1-5.6-.5,12.8,12.8,0,0,1-3.7-1.4,5.3,5.3,0,0,1-2.1-2.1,5.9,5.9,0,0,1-.7-2.9,8.8,8.8,0,0,1,.2-1.7,6,6,0,0,1,.8-1.6,9.1,9.1,0,0,1,1.1-1.6l1.5-1.3a5.4,5.4,0,0,1-1.9-1.8,4.8,4.8,0,0,1-.6-2.4,8.2,8.2,0,0,1,.7-3.1,24.3,24.3,0,0,1,2-2.5,7.5,7.5,0,0,1-1.5-2.4,6.6,6.6,0,0,1-.6-3.4,7.4,7.4,0,0,1,.8-3.9,8.4,8.4,0,0,1,2.2-3.1,8,8,0,0,1,3.3-1.7,12,12,0,0,1,4.2-.7h2.3l2,.4h8.1c.3,0,.6.3.8.6A8.3,8.3,0,0,1,190.9,17.3Zm-7.6,26.3a2,2,0,0,0-1-2,5.3,5.3,0,0,0-2.7-.8h-5.1a3.2,3.2,0,0,0-1.2,1.1l-.8.9-.3.8a3.8,3.8,0,0,0-.1,1,2.6,2.6,0,0,0,1.4,2.2,9.5,9.5,0,0,0,4.1.6,12.4,12.4,0,0,0,2.7-.3,3.7,3.7,0,0,0,1.8-.8,3.4,3.4,0,0,0,.9-1.2A4,4,0,0,0,183.3,43.6Zm-1.7-20.3a4.2,4.2,0,0,0-1.1-3.2,4.2,4.2,0,0,0-3.2-1.1,3.9,3.9,0,0,0-1.8.4,3.8,3.8,0,0,0-1.3.9,6.7,6.7,0,0,0-.9,1.4,9.7,9.7,0,0,0-.1,1.7,3.8,3.8,0,0,0,3.6,4.2h.6a6.3,6.3,0,0,0,1.9-.3,4.1,4.1,0,0,0,1.3-1,2.9,2.9,0,0,0,.8-1.4A2.9,2.9,0,0,0,181.6,23.3Z" transform="translate(-12.5 -1.6)"/><path class="cls-1" d="M218.4,27.5a2.5,2.5,0,0,1-.5,1.9,2.1,2.1,0,0,1-1.6.7H200.8a9.2,9.2,0,0,0,.4,2.9,10.1,10.1,0,0,0,1.2,2.3,6.4,6.4,0,0,0,2.2,1.4,10.6,10.6,0,0,0,3.1.5,18.4,18.4,0,0,0,3.3-.3l2.5-.6,1.7-.7,1.2-.2h.3l.3.3c.1.2.1.5.2.8v2.3c0,.2-.1.5-.1.7s-.1.3-.2.5l-.3.4-1,.5-2.1.8-2.9.5-3.6.2a16.6,16.6,0,0,1-5.8-.8,10.6,10.6,0,0,1-4.3-2.6,10.3,10.3,0,0,1-2.6-4.4,21.5,21.5,0,0,1-.7-6.2,20.2,20.2,0,0,1,.8-6,12.5,12.5,0,0,1,6.6-7.6,17.1,17.1,0,0,1,5.5-.9,14.3,14.3,0,0,1,5.4.9,8.9,8.9,0,0,1,3.7,2.6,12.6,12.6,0,0,1,2.2,3.9,20.5,20.5,0,0,1,.6,4.9Zm-6.9-2a6.5,6.5,0,0,0-1.3-4.7,4.3,4.3,0,0,0-3.9-1.8,5.5,5.5,0,0,0-4.1,1.9,7.5,7.5,0,0,0-1,2,11.7,11.7,0,0,0-.4,2.6Z" transform="translate(-12.5 -1.6)"/><rect class="cls-2" width="207.3" height="52"/></svg>