<svg id="Layer_1" data-name="Layer 1" xmlns="http://www.w3.org/2000/svg" width="458" height="52" viewBox="0 0 458 52"><defs><style>.cls-1{fill:#231f20;}.cls-2{fill:none;opacity:0;}</style></defs><title>netdocuments</title><path class="cls-1" d="M66.2,52.1a3.3,3.3,0,0,1-.3,1.5,2.8,2.8,0,0,1-.8,1.1,2.4,2.4,0,0,1-1.1.6l-1.4.2h-4l-2.1-.2a3.7,3.7,0,0,1-1.7-1,6.3,6.3,0,0,1-1.5-1.7c-.5-.8-1-1.8-1.6-3L40.1,27.9Q39.1,26,38,23.7c-.6-1.5-1.3-2.9-1.8-4.3h-.1c.1,1.7.2,3.4.2,5.1s.1,3.5.1,5.3V54.1a1.4,1.4,0,0,1-.2.7c-.1.2-.4.3-.7.4a3.3,3.3,0,0,1-1.3.4H30a4,4,0,0,1-1.3-.4.9.9,0,0,1-.6-.4.8.8,0,0,1-.2-.7V12.4a3.1,3.1,0,0,1,1-2.6A3.6,3.6,0,0,1,31.3,9h5.1l2.3.2a4.8,4.8,0,0,1,1.6.8,4.1,4.1,0,0,1,1.4,1.5A15.7,15.7,0,0,1,43,13.8l9.1,17,1.5,3a21,21,0,0,1,1.5,3c.5,1,1,2,1.4,3s.9,1.9,1.4,2.8h0c-.1-1.6-.1-3.4-.2-5.2v-27a1.4,1.4,0,0,1,.2-.7c.1-.2.4-.3.7-.5L60,8.9h4.1l1.3.3c.3.2.5.3.6.5a1.4,1.4,0,0,1,.2.7Z" transform="translate(-24 -6.5)"/><path class="cls-1" d="M105.4,37.3a3.3,3.3,0,0,1-.8,2.4,2.5,2.5,0,0,1-2,.8H83.1a13.8,13.8,0,0,0,.5,3.7,7.3,7.3,0,0,0,1.5,2.9,7.8,7.8,0,0,0,2.8,1.7,11.6,11.6,0,0,0,4,.6,24.6,24.6,0,0,0,4.1-.3l3.1-.7,2.2-.8,1.4-.3h.6l.3.4a2.4,2.4,0,0,1,.2.9,6.6,6.6,0,0,1,.1,1.5,5.7,5.7,0,0,1-.1,1.4,2.2,2.2,0,0,1-.1.9,1.4,1.4,0,0,1-.2.7,1,1,0,0,1-.4.5c-.1.2-.5.4-1.2.7a12.5,12.5,0,0,1-2.7.8,29.6,29.6,0,0,1-3.7.8,31.5,31.5,0,0,1-4.4.3,23.7,23.7,0,0,1-7.5-1.1,12.3,12.3,0,0,1-5.4-3.3A13.6,13.6,0,0,1,75,46.4a25.7,25.7,0,0,1-1.1-7.8A26,26,0,0,1,75,30.9,17.7,17.7,0,0,1,78.3,25a14.3,14.3,0,0,1,5.1-3.6,18.4,18.4,0,0,1,6.9-1.3,17.6,17.6,0,0,1,6.8,1.2,12.5,12.5,0,0,1,4.7,3.3,14.2,14.2,0,0,1,2.7,5,20.6,20.6,0,0,1,.9,6.2Zm-8.8-2.6a9.1,9.1,0,0,0-1.5-6A6.1,6.1,0,0,0,90,26.5a7.3,7.3,0,0,0-3,.7,6.8,6.8,0,0,0-2.1,1.7,10.5,10.5,0,0,0-1.3,2.6,16.4,16.4,0,0,0-.5,3.2Z" transform="translate(-24 -6.5)"/><path class="cls-1" d="M131.3,51.1a8.2,8.2,0,0,1-.2,2.4,3.3,3.3,0,0,1-.5,1.2l-.9.6-1.5.4-1.8.4h-2a16.1,16.1,0,0,1-4.7-.7,9.3,9.3,0,0,1-3.3-2.1,10.3,10.3,0,0,1-1.9-3.6,18.8,18.8,0,0,1-.6-5.1V28.3h-3.8c-.5,0-.8-.3-1.1-.8a10.2,10.2,0,0,1-.3-2.9,8.6,8.6,0,0,1,.1-1.7,3.7,3.7,0,0,1,.2-1.2l.5-.6h4.4V13.8a1.4,1.4,0,0,1,.2-.6,1.3,1.3,0,0,1,.7-.5l1.4-.3h4.4l1.4.3a1.3,1.3,0,0,1,.7.5.7.7,0,0,1,.2.6V21h7.6l.5.6a3.7,3.7,0,0,1,.2,1.2,8.6,8.6,0,0,1,.1,1.7,10.2,10.2,0,0,1-.3,2.9c-.3.5-.6.8-1.1.8h-7v15a7.2,7.2,0,0,0,.9,4,3.2,3.2,0,0,0,2.9,1.3H128l1-.3.8-.3h.9a.5.5,0,0,1,.3.5,2.5,2.5,0,0,1,.2,1A8.1,8.1,0,0,1,131.3,51.1Z" transform="translate(-24 -6.5)"/><path class="cls-1" d="M177,31.5a30.3,30.3,0,0,1-1.7,11,18.3,18.3,0,0,1-4.8,7.4,19,19,0,0,1-7.5,4.2,37.8,37.8,0,0,1-10.7,1.3H141.2a2.9,2.9,0,0,1-2-.7,2.8,2.8,0,0,1-.8-2.2V12a2.9,2.9,0,0,1,.8-2.3,2.9,2.9,0,0,1,2-.7h11.9a35.8,35.8,0,0,1,10.6,1.4,19.6,19.6,0,0,1,7.3,4.3,20.5,20.5,0,0,1,4.5,7.1A28.6,28.6,0,0,1,177,31.5Zm-9.8.4a24,24,0,0,0-.7-6.2,13.4,13.4,0,0,0-2.5-4.9,11.4,11.4,0,0,0-4.4-3.3,19.4,19.4,0,0,0-7-1.1h-4.8V48h4.9a20.8,20.8,0,0,0,6.6-1,11.4,11.4,0,0,0,4.4-3.1,12.6,12.6,0,0,0,2.7-5A25,25,0,0,0,167.2,31.9Z" transform="translate(-24 -6.5)"/><path class="cls-1" d="M216.6,37.9a22.7,22.7,0,0,1-1.1,7.5,17.3,17.3,0,0,1-3.2,5.8,14.1,14.1,0,0,1-5.5,3.7,20.3,20.3,0,0,1-7.7,1.4,21.1,21.1,0,0,1-7.5-1.2,13.7,13.7,0,0,1-5.2-3.5,14.1,14.1,0,0,1-3.1-5.5,25,25,0,0,1-1-7.6,25.6,25.6,0,0,1,1.1-7.5,15.1,15.1,0,0,1,3.3-5.8,14.9,14.9,0,0,1,5.4-3.7,20.3,20.3,0,0,1,7.7-1.4,21.1,21.1,0,0,1,7.5,1.2,12.7,12.7,0,0,1,5.2,3.4,14.5,14.5,0,0,1,3.1,5.6A25,25,0,0,1,216.6,37.9Zm-9.3.3a19.6,19.6,0,0,0-.4-4.3,9.7,9.7,0,0,0-1.2-3.5,6.6,6.6,0,0,0-2.4-2.3,8.6,8.6,0,0,0-3.8-.8,7.8,7.8,0,0,0-3.5.7,6.5,6.5,0,0,0-2.5,2.2,10.5,10.5,0,0,0-1.4,3.4,20,20,0,0,0-.5,4.5,20,20,0,0,0,.4,4.4,9.8,9.8,0,0,0,1.3,3.5,5.4,5.4,0,0,0,2.3,2.2,7.6,7.6,0,0,0,3.8.9,7.8,7.8,0,0,0,3.5-.8,6.4,6.4,0,0,0,2.5-2.1,11.7,11.7,0,0,0,1.5-3.4A21.3,21.3,0,0,0,207.3,38.2Z" transform="translate(-24 -6.5)"/><path class="cls-1" d="M248,49.1v1.6a8.7,8.7,0,0,1-.2,1,1.2,1.2,0,0,1-.2.7,1.9,1.9,0,0,1-.6.7,6.4,6.4,0,0,1-1.4,1,13.3,13.3,0,0,1-2.4,1.1,13.7,13.7,0,0,1-2.9.7,16.6,16.6,0,0,1-3.2.3,19,19,0,0,1-6.6-1.1,12.7,12.7,0,0,1-4.8-3.4,16.9,16.9,0,0,1-2.9-5.5,27,27,0,0,1-1-7.4,25.5,25.5,0,0,1,1.2-8.3,16.5,16.5,0,0,1,3.4-5.8,12.7,12.7,0,0,1,5.1-3.4,19.3,19.3,0,0,1,6.5-1.1l2.8.2,2.6.7a10.2,10.2,0,0,1,2.1,1l1.4.9.5.7.3.7c0,.3.1.6.1,1s.1,1,.1,1.6a9,9,0,0,1-.4,2.9c-.2.6-.5.8-.9.8a1.8,1.8,0,0,1-1.3-.5l-1.6-1.1a12.3,12.3,0,0,0-2.3-1.1,9.1,9.1,0,0,0-3.1-.5,6,6,0,0,0-5.3,2.7c-1.3,1.8-1.9,4.5-1.9,8a15.5,15.5,0,0,0,.5,4.5,9.9,9.9,0,0,0,1.3,3.3,6.2,6.2,0,0,0,2.3,2,7,7,0,0,0,3.3.7,7.9,7.9,0,0,0,3.2-.6,7.1,7.1,0,0,0,2.3-1.2l1.7-1.2a1.9,1.9,0,0,1,1.2-.6l.5.2a.9.9,0,0,1,.3.6,5.1,5.1,0,0,1,.2,1.3A10.3,10.3,0,0,1,248,49.1Z" transform="translate(-24 -6.5)"/><path class="cls-1" d="M284.9,54.2a.8.8,0,0,1-.2.7l-.6.4-1.2.3h-3.7l-1.2-.3a1.5,1.5,0,0,1-.6-.4,1.4,1.4,0,0,1-.2-.7V50.5a20.4,20.4,0,0,1-5.4,4.3,11.6,11.6,0,0,1-5.7,1.5,12.8,12.8,0,0,1-5.5-1.1,9.8,9.8,0,0,1-3.7-3,11.3,11.3,0,0,1-1.9-4.3,26.2,26.2,0,0,1-.6-6.1V22.2c0-.2,0-.5.2-.6a1,1,0,0,1,.7-.5l1.4-.3H261l1.4.3a1.6,1.6,0,0,1,.8.5,1.1,1.1,0,0,1,.2.6V40.3a18.1,18.1,0,0,0,.3,3.8,5.4,5.4,0,0,0,1,2.3,5,5,0,0,0,1.7,1.5,6,6,0,0,0,2.4.5,5.9,5.9,0,0,0,3.4-1.2,21.5,21.5,0,0,0,3.7-3.7V22.2a1.1,1.1,0,0,1,.2-.6,1.6,1.6,0,0,1,.8-.5l1.3-.3h4.4l1.4.3a1.3,1.3,0,0,1,.7.5c.2.1.2.4.2.6Z" transform="translate(-24 -6.5)"/><path class="cls-1" d="M345,54.2a1.4,1.4,0,0,1-.2.7l-.8.4-1.3.3h-4.4l-1.4-.3a2.9,2.9,0,0,1-.8-.4,1.5,1.5,0,0,1-.1-.7v-19a13.5,13.5,0,0,0-.4-2.9,6.9,6.9,0,0,0-.9-2.3,4.6,4.6,0,0,0-1.6-1.5,4.9,4.9,0,0,0-5.5.8,20.2,20.2,0,0,0-3.6,3.6V54.2a1.4,1.4,0,0,1-.2.7l-.8.4-1.3.3h-4.4l-1.4-.3-.7-.4a1.4,1.4,0,0,1-.2-.7v-19a13.6,13.6,0,0,0-.3-2.9,6.9,6.9,0,0,0-.9-2.3,5.7,5.7,0,0,0-1.6-1.5,5.6,5.6,0,0,0-2.3-.5,5.1,5.1,0,0,0-3.3,1.3,17.2,17.2,0,0,0-3.5,3.6V54.2a.9.9,0,0,1-.3.7,1.4,1.4,0,0,1-.7.4l-1.4.3h-4.4l-1.3-.3-.8-.4a1.4,1.4,0,0,1-.2-.7v-32a1.1,1.1,0,0,1,.2-.6,1,1,0,0,1,.6-.5l1.2-.3h3.8l1.2.3.5.5c.2.1.2.4.2.6v3.7a21.8,21.8,0,0,1,5.3-4.3,11.1,11.1,0,0,1,5.5-1.5,13,13,0,0,1,3.6.5,8.6,8.6,0,0,1,2.8,1.1,12.9,12.9,0,0,1,2.1,1.9,14.3,14.3,0,0,1,1.6,2.4,35,35,0,0,1,2.8-2.7,21.1,21.1,0,0,1,2.7-1.8,14.8,14.8,0,0,1,2.7-1,12.6,12.6,0,0,1,2.7-.4,12,12,0,0,1,5.4,1.1,9.4,9.4,0,0,1,3.6,2.9,12.5,12.5,0,0,1,1.9,4.4,21.8,21.8,0,0,1,.6,5.2Z" transform="translate(-24 -6.5)"/><path class="cls-1" d="M383.4,37.3a3.3,3.3,0,0,1-.7,2.4,2.8,2.8,0,0,1-2,.8H361.2a14,14,0,0,0,.4,3.7,9,9,0,0,0,1.6,2.9,7.3,7.3,0,0,0,2.7,1.7,12,12,0,0,0,4,.6,25.8,25.8,0,0,0,4.2-.3l3.1-.7,2.2-.8,1.4-.3h.5a.8.8,0,0,1,.4.4c.1.2.1.6.2.9v2.9c0,.4-.1.7-.1.9a6.4,6.4,0,0,1-.2.7l-.4.5-1.3.7a12.5,12.5,0,0,1-2.7.8,26.1,26.1,0,0,1-3.7.8,29.4,29.4,0,0,1-4.4.3,24.2,24.2,0,0,1-7.5-1.1,12.9,12.9,0,0,1-8.6-8.8,25.9,25.9,0,0,1-1-7.8,23.1,23.1,0,0,1,1.1-7.7,16,16,0,0,1,3.2-5.9,13.9,13.9,0,0,1,5.2-3.6,18.3,18.3,0,0,1,6.8-1.3,17.8,17.8,0,0,1,6.9,1.2,12.5,12.5,0,0,1,4.7,3.3,14.2,14.2,0,0,1,2.7,5,24.5,24.5,0,0,1,.8,6.2Zm-8.7-2.6a9.7,9.7,0,0,0-1.6-6,5.9,5.9,0,0,0-5-2.2,6.6,6.6,0,0,0-3,.7,5.1,5.1,0,0,0-2.1,1.7,7.9,7.9,0,0,0-1.3,2.6,11.3,11.3,0,0,0-.5,3.2Z" transform="translate(-24 -6.5)"/><path class="cls-1" d="M421.5,54.2a.9.9,0,0,1-.3.7,1.4,1.4,0,0,1-.7.4l-1.4.3h-4.3l-1.4-.3a1.4,1.4,0,0,1-.7-.4.9.9,0,0,1-.3-.7V35.9a17.3,17.3,0,0,0-.3-3.6,7,7,0,0,0-1-2.3,5,5,0,0,0-1.7-1.5,5.2,5.2,0,0,0-2.3-.5,5.4,5.4,0,0,0-3.5,1.3,17.6,17.6,0,0,0-3.7,3.6V54.2a1.4,1.4,0,0,1-.2.7l-.7.4-1.4.3h-4.4l-1.4-.3-.7-.4a.8.8,0,0,1-.2-.7v-32c0-.2,0-.5.1-.6a1.8,1.8,0,0,1,.7-.5l1.2-.3h3.7l1.2.3a1,1,0,0,1,.6.5,1.1,1.1,0,0,1,.2.6v3.7a20.4,20.4,0,0,1,5.4-4.3,11.6,11.6,0,0,1,5.7-1.5,12.8,12.8,0,0,1,5.5,1.1,10.6,10.6,0,0,1,3.7,2.9,12.5,12.5,0,0,1,1.9,4.4,20.3,20.3,0,0,1,.7,5.9Z" transform="translate(-24 -6.5)"/><path class="cls-1" d="M448.6,51.1a8.2,8.2,0,0,1-.2,2.4,3.3,3.3,0,0,1-.5,1.2l-.9.6-1.5.4-1.8.4h-2a16.1,16.1,0,0,1-4.7-.7,9.3,9.3,0,0,1-3.3-2.1,10.3,10.3,0,0,1-1.9-3.6,18.8,18.8,0,0,1-.6-5.1V28.3h-3.8c-.5,0-.8-.3-1.1-.8a10.2,10.2,0,0,1-.3-2.9,8.6,8.6,0,0,1,.1-1.7,3.7,3.7,0,0,1,.2-1.2l.5-.6h4.4V13.8a1.4,1.4,0,0,1,.2-.6,1.3,1.3,0,0,1,.7-.5l1.4-.3h4.4l1.4.3a1.3,1.3,0,0,1,.7.5,1.4,1.4,0,0,1,.2.6V21h7.6l.5.6a3.7,3.7,0,0,1,.2,1.2,8.6,8.6,0,0,1,.1,1.7,10.2,10.2,0,0,1-.3,2.9c-.3.5-.6.8-1.1.8h-7v15a8.3,8.3,0,0,0,.8,4,3.6,3.6,0,0,0,3,1.3h1.3l1-.3.8-.3h.9a.5.5,0,0,1,.3.5,2.5,2.5,0,0,1,.2,1A8.1,8.1,0,0,1,448.6,51.1Z" transform="translate(-24 -6.5)"/><path class="cls-1" d="M477.7,45.2a10.6,10.6,0,0,1-1,4.8,10.9,10.9,0,0,1-2.9,3.5,13.8,13.8,0,0,1-4.4,2.1,24.3,24.3,0,0,1-5.5.7,19.8,19.8,0,0,1-3.5-.3l-2.9-.7-2.2-.8-1.2-.8a2.3,2.3,0,0,1-.6-1.2,8.2,8.2,0,0,1-.2-2.4V48.4c.1-.4.1-.7.2-1l.4-.5h.5a2.4,2.4,0,0,1,1.2.4l1.9,1a16.9,16.9,0,0,0,2.7,1,12.3,12.3,0,0,0,3.5.5,6.6,6.6,0,0,0,2.1-.3,4.4,4.4,0,0,0,1.7-.7,3.2,3.2,0,0,0,1.1-1.2,3.8,3.8,0,0,0,.3-1.6,2.8,2.8,0,0,0-.7-1.9,5.9,5.9,0,0,0-1.7-1.3L464,41.6l-2.8-1.1-2.9-1.4a11.2,11.2,0,0,1-2.4-1.9,7.5,7.5,0,0,1-1.8-2.8,11.3,11.3,0,0,1-.7-3.9,9.9,9.9,0,0,1,.9-4.2,9.3,9.3,0,0,1,2.6-3.3,12.2,12.2,0,0,1,4.1-2.1,18.7,18.7,0,0,1,5.5-.8,13.6,13.6,0,0,1,2.9.3l2.6.5a8.4,8.4,0,0,1,1.9.7l1.1.6a1.3,1.3,0,0,1,.5.6,1.4,1.4,0,0,1,.2.6c.1.3.1.6.2,1v2.9a8.7,8.7,0,0,1-.2,1,1,1,0,0,1-.4.5h-.5a2.2,2.2,0,0,1-1-.4l-1.7-.8-2.3-.8a14.6,14.6,0,0,0-3.1-.4,6.6,6.6,0,0,0-2.1.3,5.2,5.2,0,0,0-1.5.7,3.1,3.1,0,0,0-.9,1.1,3.1,3.1,0,0,0-.3,1.3,2.9,2.9,0,0,0,.7,1.9,5.9,5.9,0,0,0,1.8,1.3,15.6,15.6,0,0,0,2.6,1.1l2.8,1.1,2.9,1.4a11.8,11.8,0,0,1,2.5,1.9,7.5,7.5,0,0,1,1.8,2.8A8.6,8.6,0,0,1,477.7,45.2Z" transform="translate(-24 -6.5)"/><rect class="cls-2" width="458" height="52"/></svg>