<svg id="Layer_1" data-name="Layer 1" xmlns="http://www.w3.org/2000/svg" xmlns:xlink="http://www.w3.org/1999/xlink" width="230.2" height="52" viewBox="0 0 230.2 52"><defs><style>.cls-1{fill:url(#linear-gradient);}.cls-2{fill:url(#radial-gradient);}.cls-3{fill:url(#linear-gradient-2);}.cls-4{fill:url(#linear-gradient-3);}.cls-5{fill:url(#linear-gradient-4);}.cls-6{fill:url(#linear-gradient-5);}.cls-7{fill:url(#linear-gradient-6);}.cls-8{fill:url(#linear-gradient-7);}.cls-9{fill:#fff;opacity:0.2;}</style><linearGradient id="linear-gradient" x1="173.1" y1="18.2" x2="172.18" y2="70.93" gradientUnits="userSpaceOnUse"><stop offset="0" stop-color="#652d90"/><stop offset="1" stop-color="#262261"/></linearGradient><radialGradient id="radial-gradient" cx="-79.9" cy="61.25" fx="-150.46595750688982" fy="-32.77611741438881" r="139.54" gradientTransform="translate(188.5 25.3) scale(0.24 0.24)" gradientUnits="userSpaceOnUse"><stop offset="0" stop-color="#652d90"/><stop offset="0.23" stop-color="#5d2c8a"/><stop offset="0.59" stop-color="#472879"/><stop offset="1" stop-color="#262261"/></radialGradient><linearGradient id="linear-gradient-2" x1="209.65" y1="39.05" x2="134.51" y2="39.05" gradientUnits="userSpaceOnUse"><stop offset="0" stop-color="#fff"/><stop offset="1" stop-color="#231f20"/></linearGradient><linearGradient id="linear-gradient-3" x1="206.79" y1="50.59" x2="137.37" y2="50.59" xlink:href="#linear-gradient-2"/><linearGradient id="linear-gradient-4" x1="203.66" y1="59.75" x2="140.49" y2="59.75" xlink:href="#linear-gradient-2"/><linearGradient id="linear-gradient-5" x1="135.99" y1="37.95" x2="208.17" y2="37.95" xlink:href="#linear-gradient-2"/><linearGradient id="linear-gradient-6" x1="138.73" y1="49.03" x2="205.42" y2="49.03" xlink:href="#linear-gradient-2"/><linearGradient id="linear-gradient-7" x1="141.73" y1="57.83" x2="202.42" y2="57.83" xlink:href="#linear-gradient-2"/></defs><title>Dispatcher</title><path class="cls-1" d="M195.2,69.5a1.3,1.3,0,0,1-1.4,1.1H151.5a1.3,1.3,0,0,1-1.4-1.1V19.6c0-.6.6-1,1.4-1h42.3c.8,0,1.4.4,1.4,1Z" transform="translate(-134.5 -18.6)"/><path class="cls-2" d="M193.9,68.1c0,.6-.5,1-1.3,1h-40c-.7,0-1.2-.4-1.2-1V21a1.1,1.1,0,0,1,1.2-1h40c.8,0,1.3.5,1.3,1Z" transform="translate(-134.5 -18.6)"/><path class="cls-3" d="M134.5,47.9s14.8-17.7,38.3-17.7,36.8,17.7,36.8,17.7-17.7-13.6-36.9-13.6S134.5,47.9,134.5,47.9Z" transform="translate(-134.5 -18.6)"/><path class="cls-4" d="M137.4,58.8s13.7-16.5,35.4-16.5,34,16.5,34,16.5-16.5-13-34.2-13S137.4,58.8,137.4,58.8Z" transform="translate(-134.5 -18.6)"/><path class="cls-5" d="M140.5,66.7S153,52.8,172.7,52.8a42,42,0,0,1,31,13.9s-15.4-11-31.6-11S140.5,66.7,140.5,66.7Z" transform="translate(-134.5 -18.6)"/><path class="cls-6" d="M136,46.5s14.2-17.1,36.8-17.1,35.4,17.1,35.4,17.1-17.1-13.1-35.6-13.1S136,46.5,136,46.5Z" transform="translate(-134.5 -18.6)"/><path class="cls-7" d="M138.7,57s13.2-15.9,34-15.9S205.4,57,205.4,57s-15.8-12.5-32.8-12.5S138.7,57,138.7,57Z" transform="translate(-134.5 -18.6)"/><path class="cls-8" d="M141.7,64.5s12-13.3,31-13.3a40.2,40.2,0,0,1,29.7,13.3s-14.8-10.6-30.3-10.6S141.7,64.5,141.7,64.5Z" transform="translate(-134.5 -18.6)"/><path class="cls-9" d="M171.3,40.4a35.4,35.4,0,0,1,22.6,1.1V21c0-.5-.5-1-1.3-1h-40a1.1,1.1,0,0,0-1.2,1V33.3S159,44,171.3,40.4Z" transform="translate(-134.5 -18.6)"/><path d="M211.4,19.4h9.2c6.8,0,9.7,4.9,9.7,11s-2.9,11.1-9.7,11.1h-9.2Zm3.9,18.9h3.8c6.1,0,7.4-3.5,7.4-7.9s-1.3-7.9-7.4-7.9h-3.8Z" transform="translate(-134.5 -18.6)"/><path d="M233.4,19.4h3.5v3.3h-3.5Zm0,6.1h3.5v16h-3.5Z" transform="translate(-134.5 -18.6)"/><path d="M243.4,36.3c.2,2.1,1.7,2.8,3.6,2.8s3.7-.3,3.6-2.1-2.7-2.1-5.3-2.7-5.1-1.4-5.1-4.7S244,25,246.9,25s6.2,1.4,6.7,5h-3.7c-.3-1.7-1.7-2.2-3.3-2.2s-2.9.3-2.9,1.7,2.6,1.9,5.2,2.5,5.2,1.5,5.2,4.7-3.8,5.2-7.2,5.2-7-1.8-7-5.6Z" transform="translate(-134.5 -18.6)"/><path d="M256.9,25.5h3.3v2.1h.1a5.4,5.4,0,0,1,4.9-2.6c5.1,0,7.5,3.9,7.5,8.5s-2.1,8.4-6.9,8.4a6.1,6.1,0,0,1-5.3-2.5h-.1v8h-3.5Zm7.9,2.3c-3,0-4.5,2.3-4.5,5.7s1.6,5.6,4.5,5.6,4.4-2.8,4.4-5.6S267.7,27.8,264.8,27.8Z" transform="translate(-134.5 -18.6)"/><path d="M289.1,37.9c0,.9.2,1.2.8,1.2h.9v2.4a8.5,8.5,0,0,1-2.2.4c-1.5,0-2.5-.5-2.8-2a8,8,0,0,1-5.5,2c-2.9,0-5.5-1.5-5.5-4.7s3.2-4.6,6.2-5,4.8-.1,4.8-2.2-1.9-2.2-3.3-2.2-3.4.8-3.6,2.6h-3.5c.3-4.2,3.8-5.4,7.3-5.4s6.4,1.3,6.4,4.7Zm-3.5-4.4c-1.1.7-2.8.6-4.4.9s-2.9.8-2.9,2.7,2.1,2,3.3,2,4-.8,4-3Z" transform="translate(-134.5 -18.6)"/><path d="M291.3,25.5h2.6V20.7h3.6v4.8h3.2v2.6h-3.2v8.5c0,1.5.1,2.2,1.7,2.2h1.5v2.7l-2.3.2c-3.7,0-4.4-1.4-4.5-4.1V28.1h-2.6Z" transform="translate(-134.5 -18.6)"/><path d="M314,30.8a3.4,3.4,0,0,0-3.7-3c-1.8,0-4.3,1-4.3,5.8,0,2.7,1.1,5.5,4.2,5.5a3.7,3.7,0,0,0,3.8-3.6h3.5c-.6,4.1-3.2,6.4-7.3,6.4s-7.8-3.6-7.8-8.3,2.7-8.6,7.9-8.6,6.9,1.9,7.2,5.8Z" transform="translate(-134.5 -18.6)"/><path d="M320.4,19.4h3.5v8.2h.1a5.6,5.6,0,0,1,4.8-2.6c3.5,0,5.6,1.9,5.6,5.5v11h-3.5V31.4c0-2.5-1-3.6-3.1-3.6a3.9,3.9,0,0,0-3.9,4.2v9.5h-3.5Z" transform="translate(-134.5 -18.6)"/><path d="M340.9,34.4c0,2.5,1.4,4.7,4.3,4.7a3.7,3.7,0,0,0,3.9-2.6h3.4a7.1,7.1,0,0,1-7.3,5.4c-5,0-7.8-3.5-7.8-8.4s3-8.5,7.7-8.5,8.2,4.6,7.6,9.4Zm8.2-2.3c-.1-2.3-1.6-4.3-4-4.3a4.2,4.2,0,0,0-4.2,4.3Z" transform="translate(-134.5 -18.6)"/><path d="M355.4,25.5h3.3v3.1h0a5.2,5.2,0,0,1,4.7-3.6h1.3v3.4h-1.5c-2.4,0-4.3,1.9-4.3,5.5v7.6h-3.5Z" transform="translate(-134.5 -18.6)"/><path d="M285,51h6.9a4.2,4.2,0,0,1,4.5,4.3c0,3.7-2.4,5.7-5.9,5.7h-6l-1.6,7.6h-1.6Zm-.2,8.6h5.8a3.9,3.9,0,0,0,4.2-4c0-2.4-1.4-3.2-3.5-3.2h-5Z" transform="translate(-134.5 -18.6)"/><path d="M299.7,51h1.5l-1.5,7.2h0a5.3,5.3,0,0,1,4.4-2.7c2.1,0,3.7,1,3.7,3.4a10.4,10.4,0,0,1-.2,1.5l-1.7,8.2h-1.5l1.7-8.2a5.9,5.9,0,0,0,.2-1.3c0-1.7-1.2-2.3-2.6-2.3s-4.2,2-4.8,5.2l-1.4,6.6H296Z" transform="translate(-134.5 -18.6)"/><path d="M321.3,60.5c0,4.3-2.3,8.5-6.9,8.5s-4.9-2.2-4.9-5.3,2.5-8.2,6.9-8.2A4.6,4.6,0,0,1,321.3,60.5Zm-1.5.3c0-2.4-1.3-4-3.7-4s-5.1,3.7-5.1,6.7,1.2,4.2,3.7,4.2S319.8,63.8,319.8,60.8Z" transform="translate(-134.5 -18.6)"/><path d="M324.4,62.6a3.4,3.4,0,0,0-.1,1c0,2.3,1.2,4.1,3.6,4.1a4.2,4.2,0,0,0,4-3.2h1.6c-.9,2.8-2.7,4.5-5.7,4.5s-5-2.1-5-5.4,2.4-8.1,6.7-8.1,4.7,2,4.7,4.9a15.5,15.5,0,0,1-.1,2.2Zm8.2-1.3c0-.3.1-.6.1-1a3.2,3.2,0,0,0-3.4-3.5c-2.5,0-4.2,2.2-4.7,4.5Z" transform="translate(-134.5 -18.6)"/><path d="M337.3,55.8h1.4l-.4,2.4h0a5.4,5.4,0,0,1,4.4-2.7c2.2,0,3.7,1,3.7,3.4a8.6,8.6,0,0,1-.1,1.5l-1.7,8.2H343l1.8-8.2a5.7,5.7,0,0,0,.1-1.3c0-1.7-1.2-2.3-2.6-2.3s-4.1,2-4.8,5.2l-1.4,6.6h-1.5Z" transform="translate(-134.5 -18.6)"/><path d="M350.2,55.8h1.5L349,68.6h-1.5Zm1-4.8h1.5l-.5,2.5h-1.5Z" transform="translate(-134.5 -18.6)"/><path d="M356.7,61.9l-2.9-6.1h1.7l2.3,5.1,4.2-5.1h1.9L358.4,62l3.3,6.6H360L357.4,63l-4.8,5.6h-1.8Z" transform="translate(-134.5 -18.6)"/></svg>