<?xml version="1.0" encoding="utf-8"?>
<!-- Generator: Adobe Illustrator 28.1.0, SVG Export Plug-In . SVG Version: 6.00 Build 0)  -->
<svg version="1.1" id="Layer_1" xmlns="http://www.w3.org/2000/svg" xmlns:xlink="http://www.w3.org/1999/xlink" x="0px" y="0px"
	 width="976px" height="241.8px" viewBox="0 0 976 241.8" enable-background="new 0 0 976 241.8" xml:space="preserve">
<linearGradient id="SVGID_1_" gradientUnits="userSpaceOnUse" x1="174.1293" y1="232.079" x2="170.3702" y2="16.721" gradientTransform="matrix(1 0 0 -1 0 242)">
	<stop  offset="0" style="stop-color:#652D90"/>
	<stop  offset="1" style="stop-color:#262261"/>
</linearGradient>
<path fill="url(#SVGID_1_)" d="M264.2,219.6c0,2.3-2.5,4.2-5.5,4.2h-173c-3,0-5.5-1.9-5.5-4.2v-204c0-2.3,2.5-4.2,5.5-4.2h173.1
	c3,0,5.5,1.9,5.5,4.2L264.2,219.6L264.2,219.6z"/>
<radialGradient id="SVGID_00000044867621217590515610000007539254232463081375_" cx="157.1021" cy="141.6814" r="139.5434" fx="86.534" fy="47.6574" gradientTransform="matrix(1 0 0 -1 0 242)" gradientUnits="userSpaceOnUse">
	<stop  offset="0" style="stop-color:#652D90"/>
	<stop  offset="0.2315" style="stop-color:#5D2C8A"/>
	<stop  offset="0.5934" style="stop-color:#472879"/>
	<stop  offset="1" style="stop-color:#262261"/>
</radialGradient>
<path fill="url(#SVGID_00000044867621217590515610000007539254232463081375_)" d="M259.1,213.9c0,2.2-2.3,4-5.2,4H90.5
	c-2.9,0-5.2-1.8-5.2-4V21.3c0-2.2,2.3-4,5.2-4h163.4c2.9,0,5.2,1.8,5.2,4V213.9z"/>
<linearGradient id="SVGID_00000180338547123919905580000006638438823608830385_" gradientUnits="userSpaceOnUse" x1="323.3" y1="163.95" x2="16.4" y2="163.95" gradientTransform="matrix(1 0 0 -1 0 242)">
	<stop  offset="0" style="stop-color:#FFFFFF"/>
	<stop  offset="1" style="stop-color:#231F20"/>
</linearGradient>
<path fill="url(#SVGID_00000180338547123919905580000006638438823608830385_)" d="M16.4,114.4c0,0,60.6-72.7,156.5-72.7
	s150.4,72.7,150.4,72.7s-72.7-55.7-151.1-55.7C93.9,58.7,16.4,114.4,16.4,114.4z"/>
<linearGradient id="SVGID_00000115496975107213465920000017461114203528088730_" gradientUnits="userSpaceOnUse" x1="311.6" y1="116.9" x2="28.1" y2="116.9" gradientTransform="matrix(1 0 0 -1 0 242)">
	<stop  offset="0" style="stop-color:#FFFFFF"/>
	<stop  offset="1" style="stop-color:#231F20"/>
</linearGradient>
<path fill="url(#SVGID_00000115496975107213465920000017461114203528088730_)" d="M28.1,158.8c0,0,56-67.4,144.6-67.4
	s138.9,67.4,138.9,67.4s-67.1-53.1-139.6-53.1C99.7,105.7,28.1,158.8,28.1,158.8z"/>
<linearGradient id="SVGID_00000042728904086291139350000006740508432388759720_" gradientUnits="userSpaceOnUse" x1="298.9" y1="79.4" x2="40.9" y2="79.4" gradientTransform="matrix(1 0 0 -1 0 242)">
	<stop  offset="0" style="stop-color:#FFFFFF"/>
	<stop  offset="1" style="stop-color:#231F20"/>
</linearGradient>
<path fill="url(#SVGID_00000042728904086291139350000006740508432388759720_)" d="M40.9,190.8c0,0,50.9-56.4,131.6-56.4
	s126.4,56.4,126.4,56.4S235.9,146,170,146S40.9,190.8,40.9,190.8z"/>
<linearGradient id="SVGID_00000107582082218647554340000007826131576691228848_" gradientUnits="userSpaceOnUse" x1="22.5" y1="168.5" x2="317.4" y2="168.5" gradientTransform="matrix(1 0 0 -1 0 242)">
	<stop  offset="0" style="stop-color:#FFFFFF"/>
	<stop  offset="1" style="stop-color:#231F20"/>
</linearGradient>
<path fill="url(#SVGID_00000107582082218647554340000007826131576691228848_)" d="M22.5,108.4c0,0,58.2-69.8,150.4-69.8
	s144.5,69.8,144.5,69.8S247.5,55,172.2,55S22.5,108.4,22.5,108.4z"/>
<linearGradient id="SVGID_00000070102584321948264040000003837661530533234621_" gradientUnits="userSpaceOnUse" x1="33.7" y1="123.25" x2="306.1" y2="123.25" gradientTransform="matrix(1 0 0 -1 0 242)">
	<stop  offset="0" style="stop-color:#FFFFFF"/>
	<stop  offset="1" style="stop-color:#231F20"/>
</linearGradient>
<path fill="url(#SVGID_00000070102584321948264040000003837661530533234621_)" d="M33.7,151.1c0,0,53.8-64.7,138.9-64.7
	c85.2,0,133.5,64.7,133.5,64.7s-64.5-51-134.1-51C102.4,100.1,33.7,151.1,33.7,151.1z"/>
<linearGradient id="SVGID_00000011730519720946581670000015713484023938053793_" gradientUnits="userSpaceOnUse" x1="45.9" y1="87.3" x2="293.8" y2="87.3" gradientTransform="matrix(1 0 0 -1 0 242)">
	<stop  offset="0" style="stop-color:#FFFFFF"/>
	<stop  offset="1" style="stop-color:#231F20"/>
</linearGradient>
<path fill="url(#SVGID_00000011730519720946581670000015713484023938053793_)" d="M45.9,181.8c0,0,48.9-54.2,126.4-54.2
	s121.5,54.2,121.5,54.2s-60.5-43-123.8-43C106.7,138.9,45.9,181.8,45.9,181.8z"/>
<g id="dispatcher_text" enable-background="new    ">
	<path d="M330.6,14.7H368c27.8,0,39.8,20.2,39.8,45.1c0,24.9-12,45.1-39.8,45.1h-37.4V14.7z M346.4,92h15.5
		c24.8,0,30.1-14.2,30.1-32.2s-5.3-32.2-30.1-32.2h-15.5V92z"/>
	<path d="M420.2,14.7h14.4v13.6h-14.4V14.7z M420.2,39.6h14.4v65.3h-14.4V39.6z"/>
	<path d="M461.1,83.9c0.8,8.3,7.1,11.4,14.8,11.4c5.4,0,14.9-1.1,14.5-8.6c-0.4-7.6-10.9-8.5-21.4-10.9c-10.6-2.3-21-6.1-21-19.3
		c0-14.3,15.4-18.7,27.3-18.7c13.4,0,25.5,5.6,27.3,20.1h-15c-1.3-6.8-7-8.7-13.3-8.7c-4.2,0-11.9,1-11.9,6.7
		c0,7.1,10.6,8.1,21.2,10.5c10.5,2.4,21.1,6.2,21.1,19.1c0,15.5-15.7,21.2-29.2,21.2c-16.4,0-28.7-7.3-28.9-22.8H461.1z"/>
	<path d="M516.2,39.6h13.6v8.8h0.3c4-7.5,11.9-10.6,20.2-10.6c20.6,0,30.6,15.7,30.6,34.8c0,17.6-8.8,34.1-28.2,34.1
		c-8.3,0-17.3-3-21.9-10.2h-0.3V129h-14.4V39.6z M548.5,49.2c-12.1,0-18.3,9.2-18.3,23.1c0,13.1,6.7,23,18.3,23
		c13.1,0,18.1-11.6,18.1-23C566.5,60.4,560.3,49.2,548.5,49.2z"/>
	<path d="M647.8,90.4c0,3.5,0.8,4.9,3.4,4.9c0.9,0,2,0,3.5-0.3v10c-2.1,0.8-6.7,1.6-9.1,1.6c-5.8,0-10-2-11.1-8
		c-5.7,5.6-14.9,8-22.6,8c-11.8,0-22.4-6.3-22.4-19.1c0-16.3,13-19,25.2-20.3c10.4-1.9,19.6-0.8,19.6-9.2c0-7.5-7.7-8.8-13.5-8.8
		c-8.1,0-13.8,3.3-14.4,10.4h-14.4c1-16.8,15.3-21.7,29.7-21.7c12.8,0,26.2,5.2,26.2,19V90.4z M633.4,72.2
		c-4.4,2.9-11.4,2.8-17.7,3.9c-6.2,1-11.8,3.3-11.8,10.9c0,6.4,8.2,8.3,13.3,8.3c6.3,0,16.2-3.3,16.2-12.4V72.2z"/>
	<path d="M656.8,39.6h10.9V20h14.4v19.6h13v10.7h-13v34.9c0,5.9,0.5,9,7,9c2,0,4,0,6.1-0.5v11.1c-3.2,0.3-6.2,0.8-9.4,0.8
		c-15,0-17.8-5.8-18.1-16.7V50.3h-10.9V39.6z"/>
	<path d="M749.5,61.4c-1.1-8-7-12.3-14.9-12.3c-7.5,0-17.9,3.9-17.9,23.8c0,10.9,4.8,22.4,17.3,22.4c8.3,0,14.2-5.6,15.5-14.9H764
		c-2.7,16.9-13.1,26.3-30,26.3c-20.5,0-31.7-14.5-31.7-33.7c0-19.7,10.7-35.1,32.2-35.1c15.2,0,28.1,7.6,29.4,23.6H749.5z"/>
	<path d="M775.7,14.7h14.4v33.5h0.3c3.5-5.9,11-10.4,19.6-10.4c14.2,0,23.1,7.6,23.1,22.2v44.9h-14.4V63.8
		c-0.3-10.2-4.3-14.7-12.8-14.7c-9.6,0-15.8,7.6-15.8,17.2v38.5h-14.4V14.7z"/>
	<path d="M859.5,76c0,10.2,5.6,19.3,17.6,19.3c8.3,0,13.4-3.7,15.9-10.9h13.6c-3.2,14.3-15.3,22.2-29.6,22.2
		c-20.5,0-32-14.3-32-34.4c0-18.6,12.1-34.5,31.6-34.5c20.6,0,33.2,18.6,30.8,38.2H859.5z M893.1,66.5c-0.5-9.1-6.7-17.3-16.4-17.3
		c-10,0-16.8,7.6-17.2,17.3H893.1z"/>
	<path d="M918.5,39.6H932v12.6h0.3c1.6-7,10.2-14.4,19.1-14.4c3.3,0,4.2,0.3,5.4,0.4v13.9c-2-0.3-4.2-0.6-6.2-0.6
		c-9.9,0-17.7,8-17.7,22.4v31.1h-14.4V39.6z"/>
</g>
<g id="stratus_text" enable-background="new    ">
	<path d="M666.8,155c-0.1-15-7.8-19.8-22-19.8c-10.2,0-21.2,4.9-21.2,17.2c0,9.1,7,12,14,14.2l8.8,2.8c11.4,3.6,22.3,7.4,22.3,21.8
		c0,8.4-5.1,26.4-32.1,26.4c-18.6,0-32.2-9.2-31.3-30h7.9c-0.8,16.7,8.8,23,24,23c10.8,0,23.6-5.5,23.6-18.4
		c0-12.1-11.4-14.3-20.6-17l-8.1-2.5c-9.7-2.9-16.4-8.9-16.4-19.9c0-17.2,14.7-24.5,29.4-24.5c16.9,0,30.5,7,29.6,26.8H666.8z"/>
	<path d="M682.4,153.8h10.8l3.8-18.7h7.3l-3.8,18.7h12l-1.2,6.4h-12.2l-8.3,39.7c-0.6,2.9-0.8,4-0.8,5.9c0,2.2,1,4.3,3.8,4.3
		c2.9,0,5.7-0.2,8.6-0.7l-1.3,6.6c-2.4,0.2-5,0.5-7.4,0.5c-5.5,0-11.1-1.4-11.1-8.9c0-1.3,0.2-3.6,0.8-6.4l8.3-41H681L682.4,153.8z"
		/>
	<path d="M723.5,153.8h6.6l-3,14.3h0.2c4.7-8.9,11.1-15.2,21.8-15.1c1.3,0,2.7,0,4,0.1l-1.6,7.6c-1.4,0-2.8-0.1-4.2-0.1
		c-13.2,0.2-20.1,11.2-22.6,22.8l-6.8,32.4h-7.3L723.5,153.8z"/>
	<path d="M755.8,172.3c2-14,12.5-20.3,25.4-20.3c8.1,0,20.8,2.9,20.8,13.8c0,6-2.6,15.4-3.7,20.9c-2.7,13.9-4,17.2-4,20.9
		c0,2.2,2.1,2.5,3.8,2.5c1,0,1.9-0.1,2.9-0.2l-1,6c-1.6,0.4-4.1,0.6-6.1,0.6c-4.1,0-6.3-2.6-6.4-6.7c0-1.1,0.1-2.3,0.2-3.4l-0.2-0.2
		c-4.2,7.2-12.5,11.4-20.8,11.4c-10.9,0-19.2-5-19.2-17.2c0-13.1,10.1-17.3,20.8-19.2c7.7-1.2,14.4-0.6,19.1-1.8
		c4.8-1.2,7.2-4,7.2-12.1c0-7.3-7.1-8.9-12.7-8.9c-9.3,0-17.3,3.6-18.9,13.9H755.8z M792.1,182.6l-0.2-0.2c-2.3,3-9.5,3.2-13.3,3.5
		c-9,0.7-23.7,1.2-23.7,14.2c0,7.9,6.4,11.2,13.4,11.2c11.8,0,19.2-7.3,21.5-18.1L792.1,182.6z"/>
	<path d="M814,153.8h10.8l3.8-18.7h7.3l-3.8,18.7h12l-1.2,6.4h-12.2l-8.3,39.7c-0.6,2.9-0.8,4-0.8,5.9c0,2.2,1,4.3,3.8,4.3
		c2.9,0,5.7-0.2,8.6-0.7l-1.3,6.6c-2.4,0.2-5,0.5-7.4,0.5c-5.5,0-11.1-1.4-11.1-8.9c0-1.3,0.2-3.6,0.8-6.4l8.3-41h-10.8L814,153.8z"
		/>
	<path d="M890.2,215.7h-6.8l2.1-11.3h-0.2c-4.5,7.3-12.5,13.1-21.4,13.1c-10.5,0-18.2-4.8-18.2-16.7c0-1.9,0.3-4.4,0.9-7.3l8.3-39.7
		h7.3l-8.4,40c-0.5,1.9-0.8,4.2-0.8,6.2c0,8.2,6.1,11.2,12.6,11.2c10.6,0,20.3-9.8,23.5-25.6l6.6-31.8h7.3L890.2,215.7z"/>
	<path d="M913.1,195.5c-0.1,12,8.5,15.6,17,15.6c6.5,0,15.1-3.5,15.1-11.4c0-8-8.3-10.6-16.2-13.7c-8-3.2-16.1-7-16.1-17.2
		c0-12,12.6-16.9,22.2-16.9c12.6,0,21.6,5.6,21.4,19.9h-7.3c0.6-9.5-5.8-13.6-14.1-13.6c-6.4,0-14.9,2-14.9,10.6
		c0,5.8,5.9,8.6,12.7,11.4c8.3,3.4,19.6,6.8,19.6,18.2c0,13.9-12.8,19-24.2,19c-11.5,0-23.3-6.5-22.6-22H913.1z"/>
</g>
<g id="Layer_4">
	<g>
		<g>
			<defs>
				<path id="SVGID_00000077299778435145290620000009785151112440614297_" d="M259.2,212.9c0,2.2-2.3,4-5.2,4H90.6
					c-2.9,0-5.2-1.8-5.2-4V20.2c0-2.2,2.3-4,5.2-4H254c2.9,0,5.2,1.8,5.2,4V212.9z"/>
			</defs>
			<clipPath id="SVGID_00000026855536893582277740000012248823053121215909_">
				<use xlink:href="#SVGID_00000077299778435145290620000009785151112440614297_"  overflow="visible"/>
			</clipPath>
			
				<radialGradient id="SVGID_00000017480528106242434430000013311000481932137906_" cx="176.9" cy="44.05" r="75.8028" gradientTransform="matrix(1 0 0 -1 0 242)" gradientUnits="userSpaceOnUse">
				<stop  offset="0" style="stop-color:#652D90"/>
				<stop  offset="0.2315" style="stop-color:#5D2C8A"/>
				<stop  offset="0.5934" style="stop-color:#472879"/>
				<stop  offset="1" style="stop-color:#262261"/>
			</radialGradient>
			
				<path display="none" clip-path="url(#SVGID_00000026855536893582277740000012248823053121215909_)" fill="url(#SVGID_00000017480528106242434430000013311000481932137906_)" d="
				M277.9,233.6c0.1-0.6,0.1-1.2,0.1-1.8c0-15.8-17.5-28.6-39.4-29.2c0.6-1.6,1-3.2,1-4.9c0-10-11.3-18.1-25.3-18.1
				c-3.5,0-6.8,0.5-9.8,1.4c-3.3-10.7-16.7-18.7-32.6-18.7c-18.5,0-33.4,10.7-33.4,23.9c0,0,0,0,0,0.1c-0.7,0-1.3-0.1-2-0.1
				c-13.6,0-24.9,7.1-27,16.4c-1.1-0.1-2.2-0.1-3.4-0.1c-16.8,0-30.3,9.7-30.3,21.7c0,3.4,1.1,6.5,3,9.4L277.9,233.6L277.9,233.6z"
				/>
		</g>
		<g>
			<defs>
				<path id="SVGID_00000169541521165433195990000017580546638327539077_" d="M259.2,212.9c0,2.2-2.3,4-5.2,4H90.6
					c-2.9,0-5.2-1.8-5.2-4V20.2c0-2.2,2.3-4,5.2-4H254c2.9,0,5.2,1.8,5.2,4V212.9z"/>
			</defs>
			<clipPath id="SVGID_00000012436048942903351980000001424542641145373589_">
				<use xlink:href="#SVGID_00000169541521165433195990000017580546638327539077_"  overflow="visible"/>
			</clipPath>
			<path display="none" clip-path="url(#SVGID_00000012436048942903351980000001424542641145373589_)" fill="#F0E3FC" d="
				M275.9,235.2c0.1-0.6,0.1-1.2,0.1-1.8c0-15.8-17.5-28.6-39.4-29.2c0.6-1.6,1-3.2,1-4.9c0-10-11.3-18.1-25.3-18.1
				c-3.5,0-6.8,0.5-9.8,1.4c-3.3-10.7-16.7-18.7-32.6-18.7c-18.5,0-33.4,10.7-33.4,23.9c0,0,0,0,0,0.1c-0.7,0-1.3-0.1-2-0.1
				c-13.6,0-24.9,7.1-27,16.4c-1.1-0.1-2.2-0.1-3.4-0.1c-16.8,0-30.3,9.7-30.3,21.7c0,3.4,1.1,6.5,3,9.4L275.9,235.2L275.9,235.2z"
				/>
		</g>
		<g>
			<defs>
				<path id="SVGID_00000137854696551782938230000003212650779968310930_" d="M259.2,212.9c0,2.2-2.3,4-5.2,4H90.6
					c-2.9,0-5.2-1.8-5.2-4V20.2c0-2.2,2.3-4,5.2-4H254c2.9,0,5.2,1.8,5.2,4V212.9z"/>
			</defs>
			<clipPath id="SVGID_00000130638750412591470650000012460507851406900891_">
				<use xlink:href="#SVGID_00000137854696551782938230000003212650779968310930_"  overflow="visible"/>
			</clipPath>
			
				<radialGradient id="SVGID_00000142890061831351477130000000448148074455887509_" cx="212.75" cy="33.3" r="72.6722" gradientTransform="matrix(1 0 0 -1 0 242)" gradientUnits="userSpaceOnUse">
				<stop  offset="0" style="stop-color:#652D90"/>
				<stop  offset="0.2315" style="stop-color:#5D2C8A"/>
				<stop  offset="0.5934" style="stop-color:#472879"/>
				<stop  offset="1" style="stop-color:#262261"/>
			</radialGradient>
			
				<path clip-path="url(#SVGID_00000130638750412591470650000012460507851406900891_)" fill="url(#SVGID_00000142890061831351477130000000448148074455887509_)" d="
				M308.9,225.3c0-11.9-9.6-21.5-21.5-21.5c-2.2,0-4.3,0.3-6.3,1c-3.6-11.6-14.4-20-27.1-20c-7.4,0-14,2.8-19.1,7.4
				c-4.6-11.6-16-19.8-29.2-19.8c-13.5,0-25,8.5-29.5,20.4c-12.2,0.4-22.1,9.8-23.3,21.7c-1.4-0.3-2.9-0.5-4.4-0.5
				c-8.2,0-15.1,5.3-17.6,12.6c-0.6-0.1-1.2-0.2-1.9-0.2c-6.9,0-12.4,5.6-12.4,12.4c0,2.3,0.6,4.4,1.7,6.2h178v-0.1
				C303.7,241.5,308.9,234,308.9,225.3z"/>
		</g>
		<g>
			<defs>
				<path id="SVGID_00000108289202153189116670000012143909518394247585_" d="M259.2,212.9c0,2.2-2.3,4-5.2,4H90.6
					c-2.9,0-5.2-1.8-5.2-4V20.2c0-2.2,2.3-4,5.2-4H254c2.9,0,5.2,1.8,5.2,4V212.9z"/>
			</defs>
			<clipPath id="SVGID_00000163030627674340773890000013090708013523077552_">
				<use xlink:href="#SVGID_00000108289202153189116670000012143909518394247585_"  overflow="visible"/>
			</clipPath>
			<path clip-path="url(#SVGID_00000163030627674340773890000013090708013523077552_)" fill="#F0E3FC" d="M307.5,226.6
				c0-11.9-9.6-21.5-21.5-21.5c-2.2,0-4.3,0.3-6.3,1c-3.6-11.6-14.4-20-27.1-20c-7.4,0-14,2.8-19.1,7.4c-4.6-11.6-16-19.8-29.2-19.8
				c-13.5,0-25,8.5-29.5,20.4c-12.2,0.4-22.1,9.8-23.3,21.7c-1.4-0.3-2.9-0.5-4.4-0.5c-8.2,0-15.1,5.3-17.6,12.6
				c-0.6-0.1-1.2-0.2-1.9-0.2c-6.9,0-12.4,5.6-12.4,12.4c0,2.3,0.6,4.4,1.7,6.2h178v-0.1C302.3,242.8,307.5,235.3,307.5,226.6z"/>
		</g>
		<g>
			<defs>
				<path id="SVGID_00000002354032302746218140000013774416712513780634_" d="M259.2,212.9c0,2.2-2.3,4-5.2,4H90.6
					c-2.9,0-5.2-1.8-5.2-4V20.2c0-2.2,2.3-4,5.2-4H254c2.9,0,5.2,1.8,5.2,4V212.9z"/>
			</defs>
			<clipPath id="SVGID_00000015313719685158652840000017337947964771246527_">
				<use xlink:href="#SVGID_00000002354032302746218140000013774416712513780634_"  overflow="visible"/>
			</clipPath>
			
				<radialGradient id="SVGID_00000150094893712890088820000016125505892426926484_" cx="145.35" cy="43.6" r="72.6722" gradientTransform="matrix(1 0 0 -1 0 242)" gradientUnits="userSpaceOnUse">
				<stop  offset="0" style="stop-color:#652D90"/>
				<stop  offset="0.2315" style="stop-color:#5D2C8A"/>
				<stop  offset="0.5934" style="stop-color:#472879"/>
				<stop  offset="1" style="stop-color:#262261"/>
			</radialGradient>
			
				<path clip-path="url(#SVGID_00000015313719685158652840000017337947964771246527_)" fill="url(#SVGID_00000150094893712890088820000016125505892426926484_)" d="
				M61.8,234.6v0.1h178c1.1-1.8,1.7-3.9,1.7-6.2c0-6.9-5.6-12.4-12.4-12.4c-0.6,0-1.3,0.1-1.9,0.2c-2.5-7.3-9.4-12.6-17.6-12.6
				c-1.5,0-3,0.2-4.4,0.5c-1.3-11.9-11.2-21.3-23.3-21.7c-4.5-11.9-16-20.4-29.5-20.4c-13.3,0-24.6,8.2-29.2,19.8
				c-5-4.6-11.7-7.4-19.1-7.4c-12.8,0-23.5,8.4-27.1,20c-2-0.6-4.1-1-6.3-1c-11.9,0-21.5,9.6-21.5,21.5
				C49.2,223.7,54.4,231.2,61.8,234.6z"/>
		</g>
		<g>
			<defs>
				<path id="SVGID_00000057113606027203086730000004364511563572098468_" d="M259.2,212.9c0,2.2-2.3,4-5.2,4H90.6
					c-2.9,0-5.2-1.8-5.2-4V20.2c0-2.2,2.3-4,5.2-4H254c2.9,0,5.2,1.8,5.2,4V212.9z"/>
			</defs>
			<clipPath id="SVGID_00000124858318944601487760000003660471649870897552_">
				<use xlink:href="#SVGID_00000057113606027203086730000004364511563572098468_"  overflow="visible"/>
			</clipPath>
			<path clip-path="url(#SVGID_00000124858318944601487760000003660471649870897552_)" fill="#F0E3FC" d="M59.7,236.5v0.1h178
				c1.1-1.8,1.7-3.9,1.7-6.2c0-6.9-5.6-12.4-12.4-12.4c-0.6,0-1.3,0.1-1.9,0.2c-2.5-7.3-9.4-12.6-17.6-12.6c-1.5,0-3,0.2-4.4,0.5
				c-1.3-11.9-11.2-21.3-23.3-21.7c-4.5-11.9-16-20.4-29.5-20.4c-13.3,0-24.6,8.2-29.2,19.8c-5-4.6-11.7-7.4-19.1-7.4
				c-12.8,0-23.5,8.4-27.1,20c-2-0.6-4.1-1-6.3-1c-11.9,0-21.5,9.6-21.5,21.5C47.1,225.6,52.3,233.1,59.7,236.5z"/>
		</g>
	</g>
</g>
</svg>
