<svg id="Layer_1" data-name="Layer 1" xmlns="http://www.w3.org/2000/svg" width="54.6" height="52" viewBox="0 0 54.6 52"><defs><style>.cls-1{fill:#397d3c;}.cls-2{fill:#fff;}</style></defs><title>ITC System</title><path class="cls-1" d="M.3,52V41.5H54.4V52Zm42.1-8v6.2h1.8V43.3H41.7c-.3,0-.4.1-.5.4a1.4,1.4,0,0,1-.2.6c-.2,1-.5,2-.8,3a2.2,2.2,0,0,0-.1.8L39.8,47c-.3-1.1-.6-2.3-1-3.5s-.1-.2-.3-.2H36v6.9h1.6V44.1h.1c.5,1.8,1.1,3.6,1.6,5.4s.2.7.9.7.4-.1.4-.3Zm2.8,3.8v.9A1.6,1.6,0,0,0,46.3,50a4,4,0,0,0,1.5.3,3.7,3.7,0,0,0,2.3-.4,1.7,1.7,0,0,0,.2-2.9l-2.2-1.2-.8-.4a.6.6,0,0,1-.2-.8.5.5,0,0,1,.5-.3h.3c.7,0,1,.1,1.2.7v.5h1.6a1.8,1.8,0,0,0-.8-1.9,4.7,4.7,0,0,0-3.5-.1,1.8,1.8,0,0,0-1.2,1.5,1.5,1.5,0,0,0,.9,1.4l1.5.9,1.3.7a.7.7,0,0,1,.3.8.9.9,0,0,1-.6.6h-.9a.8.8,0,0,1-.7-.7,2.5,2.5,0,0,0-.1-.8ZM22.7,45.4c0-.1-.1-.3-.1-.4a1.4,1.4,0,0,0-1-1.5,4.5,4.5,0,0,0-3.4-.1,1.6,1.6,0,0,0-.4,2.8l1.4.8,1.3.7a.9.9,0,0,1,.6.8.7.7,0,0,1-.8.8c-.7.1-1.2-.1-1.4-.5v-.2c0-.2-.1-.5-.1-.8H17.1v.6a1.7,1.7,0,0,0,.9,1.5,4.6,4.6,0,0,0,3.8.1,1.9,1.9,0,0,0,1.1-1.5,1.7,1.7,0,0,0-1-1.7L20,45.9l-.9-.5a.7.7,0,0,1,.1-1.1h.6a1,1,0,0,1,1.2,1v.2Zm-13.4,0a1.8,1.8,0,0,0-1-1.9,4.3,4.3,0,0,0-3.5,0,1.5,1.5,0,0,0-.3,2.7,9.5,9.5,0,0,0,1.7,1l1.3.7a.8.8,0,0,1,.2.8.7.7,0,0,1-.6.6H6.2a.9.9,0,0,1-.7-.9v-.6H3.8a2,2,0,0,0,1.3,2.4A5,5,0,0,0,8.5,50a1.7,1.7,0,0,0,.3-3L6.7,45.9a4.7,4.7,0,0,1-.9-.6.4.4,0,0,1-.2-.6.6.6,0,0,1,.5-.5H7a.5.5,0,0,1,.5.5,1.3,1.3,0,0,1,.1.6Zm20.6-2.1v6.9h5v-1H31.7V47.1h2.9v-1H31.7V44.3h3.2v-1ZM14.2,50.2V47.7a1.6,1.6,0,0,1,.3-.9l2.1-3.3v-.2H14.9a.2.2,0,0,0-.2.2l-.8,1.4-.6,1.3-.2-.5-1.2-2.2a.2.2,0,0,0-.2-.2H10v.2l2,3.1a1.6,1.6,0,0,1,.4,1.3v2.3Zm11.3-5.8v5.8h1.7V44.3h2.1v-.9H23.4v1Z" transform="translate(-0.1 0)"/><path d="M30.6,38.8v.5H18.7v-.5h3.1c.5,0,.5,0,.5-.5V1.8c0-.5-.1-.6-.6-.6l-1.5.4a5.5,5.5,0,0,0-3.3,3.2,18.5,18.5,0,0,0-1.7,5L14.9,12h-.8V.7H35.2V12h-.7l-.2-.2a18.3,18.3,0,0,0-1.6-6.5,6.8,6.8,0,0,0-4.4-4,3.3,3.3,0,0,0-1,0c-.2-.1-.3.1-.3.4V38.1c0,.6,0,.6.5.6Z" transform="translate(-0.1 0)"/><path d="M53.9,11.8h-.8l-.3-1.4c-.4-1.3-.8-2.6-1.3-3.9a35.9,35.9,0,0,0-1.7-3.4,5.5,5.5,0,0,0-1.5-1.9,2.9,2.9,0,0,0-3.7.1,4,4,0,0,0-1,1.8,17.4,17.4,0,0,0-.5,2.2A19.3,19.3,0,0,0,43,7.7c-.1.7-.1,1.5-.2,2.2s0,2.9-.1,4.3v8.1c0,1,.1,1.9.1,2.8v2.7a12.1,12.1,0,0,1,.1,1.9c0,.9.1,1.8.1,2.8a18.5,18.5,0,0,0,.7,4.1,6.2,6.2,0,0,0,1.1,1.7,2.7,2.7,0,0,0,2.6.6,4.6,4.6,0,0,0,3-1.7,12.1,12.1,0,0,0,3.2-6.6,7.7,7.7,0,0,0,.2-1.5c0-.2.1-.3.1-.4h.8a3.7,3.7,0,0,1-.1,1.1c-.2.9-.3,1.8-.5,2.6a13.8,13.8,0,0,1-3.7,5.8,5.5,5.5,0,0,1-5.2,1.1,6.4,6.4,0,0,1-4-3.2,20.5,20.5,0,0,1-2.2-5c-.3-1.2-.7-2.4-.9-3.6a12.8,12.8,0,0,1-.5-2.7,29.7,29.7,0,0,1-.3-4.2,26.2,26.2,0,0,1,0-2.8c.1-1.5.3-2.9.5-4.3a38.2,38.2,0,0,1,1.5-6.7,12.6,12.6,0,0,1,2.6-4.5A6.5,6.5,0,0,1,45.5.1a4.5,4.5,0,0,1,3,.3,3.8,3.8,0,0,1,1.6,1.3,10.5,10.5,0,0,1,.8,1.1,1,1,0,0,0,1.8-.3L53,1a.8.8,0,0,0,.1-.4h.8Z" transform="translate(-0.1 0)"/><path d="M.1,39.3v-.5H3.4a.3.3,0,0,0,.3-.3V1.7a.4.4,0,0,0-.4-.4H.1V.7H12v.5H8.7c-.2,0-.3.1-.3.4V38.4c0,.3.1.3.3.3H12v.5Z" transform="translate(-0.1 0)"/><path class="cls-2" d="M42.4,44l-1.8,5.9c0,.2-.1.3-.4.3s-.7,0-.9-.7-1.1-3.6-1.6-5.4h-.1v6.1H36V43.3h2.5c.2,0,.3.1.3.2s.7,2.4,1,3.5l.3,1.1a2.2,2.2,0,0,1,.1-.8c.3-1,.6-2,.8-3a1.4,1.4,0,0,0,.2-.6c.1-.3.2-.4.5-.4h2.4v6.9H42.3Z" transform="translate(-0.1 0)"/><path class="cls-2" d="M45.2,47.8h1.7a2.5,2.5,0,0,1,.1.8.8.8,0,0,0,.7.7h.9a.9.9,0,0,0,.6-.6.7.7,0,0,0-.3-.8l-1.3-.7-1.5-.9a1.5,1.5,0,0,1-.9-1.4,1.8,1.8,0,0,1,1.2-1.5,4.7,4.7,0,0,1,3.5.1,1.8,1.8,0,0,1,.8,1.9H49.1v-.5c-.2-.6-.5-.7-1.2-.7h-.3a.5.5,0,0,0-.5.3.6.6,0,0,0,.2.8l.8.4L50.3,47a1.7,1.7,0,0,1-.2,2.9,3.7,3.7,0,0,1-2.3.4,4,4,0,0,1-1.5-.3,1.6,1.6,0,0,1-1.1-1.3Z" transform="translate(-0.1 0)"/><path class="cls-2" d="M22.7,45.4H21v-.2a1,1,0,0,0-1.2-1h-.6a.7.7,0,0,0-.1,1.1l.9.5,1.9.9a1.7,1.7,0,0,1,1,1.7A1.9,1.9,0,0,1,21.8,50a4.6,4.6,0,0,1-3.8-.1,1.7,1.7,0,0,1-.9-1.5v-.6h1.7c0,.3.1.6.1.8v.2c.2.4.7.6,1.4.5a.7.7,0,0,0,.8-.8.9.9,0,0,0-.6-.8L19.2,47l-1.4-.8a1.6,1.6,0,0,1,.4-2.8,4.5,4.5,0,0,1,3.4.1,1.4,1.4,0,0,1,1,1.5C22.6,45.1,22.7,45.3,22.7,45.4Z" transform="translate(-0.1 0)"/><path class="cls-2" d="M9.3,45.4H7.6a1.3,1.3,0,0,0-.1-.6.5.5,0,0,0-.5-.5H6.1a.6.6,0,0,0-.5.5.4.4,0,0,0,.2.6,4.7,4.7,0,0,0,.9.6L8.8,47a1.7,1.7,0,0,1-.3,3,5,5,0,0,1-3.4.2,2,2,0,0,1-1.3-2.4H5.5v.6a.9.9,0,0,0,.7.9h.9a.7.7,0,0,0,.6-.6.8.8,0,0,0-.2-.8l-1.3-.7a9.5,9.5,0,0,1-1.7-1,1.5,1.5,0,0,1,.3-2.7,4.3,4.3,0,0,1,3.5,0A1.8,1.8,0,0,1,9.3,45.4Z" transform="translate(-0.1 0)"/><path class="cls-2" d="M29.9,43.3h5v1H31.7v1.8h2.9v1H31.7v2.1h3.2v1h-5Z" transform="translate(-0.1 0)"/><path class="cls-2" d="M14.2,50.2H12.4V47.9a1.6,1.6,0,0,0-.4-1.3l-2-3.1v-.2h1.7a.2.2,0,0,1,.2.2l1.2,2.2.2.5.6-1.3.8-1.4a.2.2,0,0,1,.2-.2h1.7v.2l-2.1,3.3a1.6,1.6,0,0,0-.3.9v2.5Z" transform="translate(-0.1 0)"/><path class="cls-2" d="M25.5,44.4H23.4v-1h5.9v.9H27.2v5.9H25.5Z" transform="translate(-0.1 0)"/></svg>