<?xml version="1.0" encoding="utf-8"?>
<!-- Generator: Adobe Illustrator 22.1.0, SVG Export Plug-In . SVG Version: 6.00 Build 0)  -->
<svg version="1.1" id="Layer_1" xmlns="http://www.w3.org/2000/svg" xmlns:xlink="http://www.w3.org/1999/xlink" x="0px" y="0px"
	 width="260px" height="27px" viewBox="0 0 260 27" style="enable-background:new 0 0 260 27;" xml:space="preserve">
<g>
	<g>
		<path d="M141.2,8.4c-1.3,0-2.4,0.5-3.2,1.4V8.3l-2.9,0.2l-0.2,0c-0.3,0-0.5,0.1-0.5,0.3c0,0.2,0.2,0.3,0.5,0.3
			c0.8,0.1,0.9,0.3,0.9,1.5c0,0.3,0,9.3,0,13.4c0.4,0,0.9,0,1.1,0c0.3,0,0.7,0,1.1,0v-6.5c0.4,0.3,0.9,0.5,1.3,0.6
			c0.4,0.1,0.9,0.2,1.4,0.2c2.9,0,5-2.2,5-5C145.7,10.5,143.9,8.4,141.2,8.4z M140.6,17.1c-1.2,0-1.9-0.5-2.2-1
			c-0.3-0.4-0.3-0.9-0.3-1.3c0-0.9,0-2.6,0-2.8c0-0.4,0.1-0.8,0.3-1c0.4-0.5,1.4-1.3,2.4-1.3c1.5,0,2.6,1.3,2.6,3.9
			C143.3,15.7,142.2,17.1,140.6,17.1z"/>
	</g>
	<path d="M151.4,13c0,0.2,0,0.4,0,0.5c0,2,1.3,3.2,3.4,3.2c1.3,0,2.2-0.4,2.7-0.7c0.2-0.1,0.3-0.2,0.4-0.2c0.2,0,0.3,0.1,0.3,0.3
		c0,0.2-0.2,0.5-0.7,0.9c-1,0.9-2.2,1.3-3.7,1.3c-3.2,0-4.9-2.1-4.9-4.7c0-3.1,2.2-5.4,5.2-5.4c2.5,0,4.3,1.7,4.3,4.1
		c0,0.4-0.4,0.6-0.8,0.6H151.4z M151.5,11.7c0,0,2.3,0,2.6,0c1.3,0,1.7,0,2.1-0.1c0.3-0.1,0.4-0.3,0.4-0.5c0-0.9-1.1-1.7-2.4-1.7
		C152.8,9.4,151.7,10.4,151.5,11.7z"/>
	<path d="M228.2,13c0,0.2,0,0.4,0,0.5c0,2,1.3,3.2,3.4,3.2c1.3,0,2.2-0.4,2.7-0.7c0.2-0.1,0.3-0.2,0.4-0.2c0.2,0,0.3,0.1,0.3,0.3
		c0,0.2-0.2,0.5-0.7,0.9c-1,0.9-2.2,1.3-3.7,1.3c-3.2,0-4.9-2.1-4.9-4.7c0-3.1,2.2-5.4,5.2-5.4c2.5,0,4.3,1.7,4.3,4.1
		c0,0.4-0.4,0.6-0.8,0.6H228.2z M228.3,11.7c0,0,2.3,0,2.6,0c1.3,0,1.7,0,2.1-0.1c0.3-0.1,0.4-0.3,0.4-0.5c0-0.9-1-1.7-2.4-1.7
		C229.6,9.4,228.5,10.4,228.3,11.7z"/>
	<g>
		<path d="M207,3.4c-0.5,0-0.7,0.1-1,0.1c-0.3,0-0.5,0-1-0.1c-0.1,0-0.1,0-0.2,0c0,3.6,0,11.2,0,14.9c0.1,0,0.1,0,0.2,0
			c0.5,0,0.7,0,1,0c0.3,0,0.5,0,1,0c0.1,0,0.1,0,0.2,0c0-3.7,0-11.3,0-14.9C207.1,3.3,207.1,3.3,207,3.4z"/>
	</g>
	<path d="M192,13.1c0.1,3-2.1,5.1-5.3,5.2c-3,0.1-5.2-1.9-5.3-4.8c-0.1-3,2.1-5.1,5.3-5.2C189.7,8.2,191.9,10.2,192,13.1z
		 M186.4,9.4c-1.7,0.1-2.8,1.5-2.6,3.9c0.2,2.5,1.4,3.9,3.3,3.9c1.7-0.1,2.8-1.5,2.5-3.9C189.4,10.8,188.3,9.4,186.4,9.4z"/>
	<g>
		<path d="M38.1,8.6c-0.9,2.4-2.1,5.2-2.6,6.3l0,0c-0.5-1-1.9-3.7-3.2-6.4c0,0,0,0-0.1,0c-0.2,0-0.3,0-0.5,0c-0.5,0-0.8,0-1.3-0.1
			c-0.2,0-0.4,0-0.5,0l0,0l3.7,7.4c0.7,1.4,1.1,2.1,1.2,2.2c0.1,0.1,0.2,0.2,0.4,0.2c0.2,0,0.3-0.2,0.6-0.9c0.3-0.6,2.7-6.4,3.7-8.9
			c-0.3,0-0.9,0.1-1.1,0.1C38.3,8.6,38.2,8.6,38.1,8.6z"/>
	</g>
	<g>
		<path d="M99.1,8.9c-1.3-0.4-2.4-0.7-2.9-1.1c-0.5-0.4-0.6-0.8-0.6-1.3c0-0.6,0.3-1.1,0.8-1.5c0.5-0.4,1.2-0.6,1.9-0.6
			c0.8,0,1.6,0.2,2.4,0.7c1.4,0.9,1.7,1.8,2,2.1c0.1,0.1,0.2,0.1,0.3,0.1c0.2,0,0.3-0.1,0.3-0.3l0-0.4l-0.3-2.3
			c-1.3-0.5-2.9-1.2-4.5-1.2c-1.6,0-2.8,0.4-3.7,1.2c-0.9,0.8-1.4,1.6-1.4,2.8c0,1.2,0.8,2.4,2,3.2c0.6,0.4,1.6,0.8,2.8,1.3
			c1.3,0.5,2.4,0.9,2.9,1.4c0.5,0.5,0.8,0.9,0.8,1.5c0,0.7-0.3,1.2-0.8,1.8c-0.6,0.5-1.3,0.8-2.2,0.8c-1.1,0-2.1-0.3-2.9-1
			c-0.8-0.7-1.4-1.3-1.9-2.4c-0.1-0.4-0.3-0.6-0.5-0.6c-0.2,0-0.3,0.1-0.3,0.3c0,0,0,0.2,0,0.3l0.2,3.1c1.2,0.6,3.2,1.5,5.3,1.5
			c3.4,0,5.4-2.5,5.4-4.8C104.2,11.8,103.2,10.3,99.1,8.9z"/>
	</g>
	<g>
		<path d="M127,8.3c-1.1,0-1.8,0.1-2.6,0.4c-0.8,0.4-1.4,1-1.4,1.8c0,0.7,0.5,1,1.1,1c0.7,0,1.2-0.3,1.4-1.1c0.1-0.7,1-1,1.6-1
			c0.4,0,0.7,0.1,1,0.4c0.5,0.5,0.4,1.4,0.1,1.9c-0.2,0.3-0.4,0.5-0.6,0.6c-0.3,0.1-0.6,0.3-1.4,0.6c-1,0.3-1.7,0.6-2.1,0.8
			c-0.9,0.5-1.5,1.1-1.5,2.3c0,1.2,1.2,2.4,2.9,2.4c2.5,0,3-1.7,3-1.7c0,1.3,0.6,1.7,1.4,1.7c0.2,0,0.6-0.1,0.9-0.2
			c0-2.9,0-6.8,0-6.8C130.6,9.3,129.3,8.3,127,8.3z M128.4,14.5c0,1.5-1,2.4-2.1,2.4c-0.9,0-1.4-0.4-1.4-1.2c0-0.9,0.5-1.3,2-1.9
			c0.9-0.3,1.4-0.6,1.6-0.8C128.4,13.8,128.4,14.2,128.4,14.5z"/>
	</g>
	<g>
		<path d="M243.5,8.3c-1.1,0-1.8,0.1-2.6,0.4c-0.8,0.4-1.4,1-1.4,1.8c0,0.7,0.5,1,1.1,1c0.8,0,1.2-0.3,1.4-1.1c0.2-0.7,1-1,1.6-1
			c0.4,0,0.7,0.1,1,0.4c0.5,0.5,0.4,1.4,0.1,1.9c-0.2,0.3-0.4,0.5-0.6,0.6c-0.2,0.1-0.6,0.3-1.4,0.6c-1,0.3-1.7,0.6-2.1,0.8
			c-0.9,0.5-1.5,1.1-1.5,2.3c0,1.2,1.2,2.4,2.9,2.4c2.5,0,3-1.7,3-1.7c0,1.3,0.6,1.7,1.4,1.7c0.2,0,0.6-0.1,0.9-0.2
			c0-2.9,0-6.8,0-6.8C247.2,9.3,245.8,8.3,243.5,8.3z M244.9,14.5c0,1.5-1,2.4-2.1,2.4c-0.9,0-1.4-0.4-1.4-1.2c0-0.9,0.5-1.3,2-1.9
			c0.9-0.3,1.4-0.6,1.6-0.8C244.9,13.8,244.9,14.2,244.9,14.5z"/>
	</g>
	<g>
		<path d="M252.3,10.8c0,1.4,0.7,2,3.2,3.2c1.1,0.5,2.1,0.8,2.1,1.9c0,1-0.8,1.3-1.6,1.3c-1.3,0-2.4-0.4-3.1-2.1
			c-0.2-0.5-0.4-0.7-0.6-0.7c-0.2,0-0.3,0.2-0.3,0.5c0,0.8,0,1.5,0,2.1c0,0,0,0.1,0,0.1c0.8,0.5,2.2,1.2,3.9,1.2
			c2.2,0,3.5-1.5,3.5-2.9c0-1.3-0.8-2.2-3-3.1c-2-0.9-2.5-1.1-2.5-1.9c0-0.6,0.6-1.1,1.4-1.1c1.2,0,2.3,0.3,2.9,1.7
			c0.2,0.4,0.4,0.6,0.5,0.6c0.2,0,0.3-0.1,0.3-0.4c0-0.4,0-0.9-0.1-1.6c0-0.1,0-0.2,0-0.3c-0.8-0.4-1.9-1-3.4-1
			C253.7,8.3,252.3,9.5,252.3,10.8z"/>
	</g>
	<g>
		<path d="M24,6.1c0.4,0,0.7-0.1,1-0.4c0.3-0.3,0.4-0.6,0.4-1c0-0.4-0.1-0.7-0.4-1c-0.3-0.3-0.6-0.4-1-0.4c-0.4,0-0.7,0.1-1,0.4
			c-0.3,0.3-0.4,0.6-0.4,1c0,0.4,0.1,0.7,0.4,1C23.2,6,23.6,6.1,24,6.1z"/>
		<path d="M22.4,8.5l-0.2,0c-0.3,0-0.5,0.1-0.5,0.3c0,0.2,0.2,0.3,0.5,0.3c0.5,0.1,0.6,0.3,0.6,1.5c0,0.4,0,5.5,0,7.5
			c0.3,0,0.7-0.1,1.1-0.1c0.4,0,0.8,0,1.1,0.1V8.3L22.4,8.5z"/>
	</g>
	<g>
		<path d="M46.7,6.1c0.4,0,0.7-0.1,1-0.4c0.3-0.3,0.4-0.6,0.4-1c0-0.4-0.1-0.7-0.4-1c-0.3-0.3-0.6-0.4-1-0.4c-0.4,0-0.7,0.1-1,0.4
			c-0.3,0.3-0.4,0.6-0.4,1c0,0.4,0.1,0.7,0.4,1C45.9,6,46.3,6.1,46.7,6.1z"/>
		<path d="M45.1,8.5l-0.2,0c-0.3,0-0.5,0.1-0.5,0.3c0,0.2,0.2,0.3,0.5,0.3c0.5,0.1,0.6,0.3,0.6,1.5c0,0.4,0,5.5,0,7.5
			c0.3,0,0.7-0.1,1.1-0.1c0.4,0,0.8,0,1.1,0.1V8.3L45.1,8.5z"/>
	</g>
	<path d="M117.7,9.9c-0.3-0.6-0.7-1-1.2-1.2c-0.5-0.2-1-0.4-1.6-0.4c-0.7,0-1.5,0.2-2,0.5c-0.6,0.4-1.2,0.9-1.7,1.6V2.8l-2.6,0.2
		l-0.2,0c-0.3,0-0.5,0.1-0.5,0.3c0,0.2,0.2,0.3,0.5,0.3c0.7,0.1,0.6,0.3,0.6,1.5c0,0.4,0,8.2,0,12.9c0.2,0,0.5-0.1,1-0.1
		c0.4,0,0.9,0,1.3,0.1v-5.3c0-0.6,0.1-1.1,0.4-1.5c0.3-0.3,0.6-0.7,0.8-0.9c0.5-0.4,1.2-0.6,1.8-0.6c0.6,0,1.1,0.2,1.3,0.7
		c0.2,0.5,0.3,0.9,0.3,2.5c0,0.5,0,2.9,0,5.1c0.1,0,0.1,0,0.2,0c0.4,0,0.9-0.1,1-0.1c0.6,0,0.8,0,1,0.1v-5.3
		C118,11.3,117.9,10.4,117.7,9.9z"/>
	<path d="M219.1,3.1l-0.2,0c-0.3,0-0.5,0.1-0.5,0.3c0,0.2,0.2,0.3,0.5,0.3c0.7,0.1,0.6,0.3,0.6,1.5c0,0.7,0,4.1,0,4.1
		c-0.6-0.6-1.4-1-2.5-1c-2.9,0-4.9,2.1-4.9,5.3c0,2.7,1.9,4.8,4.5,4.8c0.6,0,1.2-0.1,1.7-0.4c0.5-0.3,0.9-0.7,1.2-1.3
		c0,0.9,0,1.5,0,1.5l2.3-0.2c0-4.4,0-15.2,0-15.2L219.1,3.1z M219.4,14.1c0,0.5-0.1,1-0.4,1.4c-0.4,0.7-1.1,1.2-2.2,1.2
		c-1.6,0-2.5-1.2-2.5-3.6c0-2.2,1.1-3.7,2.7-3.7c1,0,1.5,0.5,1.9,1c0.3,0.3,0.4,1,0.4,1.4C219.4,12.1,219.4,13.3,219.4,14.1z"/>
	<path d="M60.6,8.3c-1.6,0-3.3,1.2-4,2.2V8.3L54,8.5l-0.2,0c-0.3,0-0.5,0.1-0.5,0.3c0,0.2,0.2,0.3,0.5,0.3c0.5,0.1,0.6,0.3,0.6,1.5
		c0,0.4,0,4.9,0,7.5c0.3,0,0.7-0.1,1.1-0.1c0.4,0,0.8,0,1.1,0.1v-5.4c0-0.4,0.1-0.8,0.3-1.1c0.4-0.6,1.4-1.8,2.7-1.8
		c1.1,0,1.6,0.6,1.6,2.6c0,0.7,0,3.8,0,5.8c0.4,0,0.6-0.1,1.2-0.1c0.5,0,0.8,0.1,1.1,0.1v-6.7C63.5,9.6,62.5,8.3,60.6,8.3z"/>
	<g>
		<path d="M15.6,11.1l-2.7,0.1h-1.7c-0.3,0-0.4,0.1-0.4,0.3c0,0.2,0.1,0.3,0.4,0.3c1.1,0.1,1.4,0.3,1.6,0.9c0.1,0.3,0.2,0.8,0.2,2
			c0,1.1-1.5,2.5-4.1,2.5c-2.8,0-5.4-2.6-5.4-6.5c0-4.2,2.8-6.3,5.5-6.3c3.1,0,4.8,1.5,5.8,3.6c0.1,0.3,0.3,0.4,0.5,0.4
			c0.2,0,0.3-0.1,0.3-0.3c0-0.1,0-0.2,0-0.4c0,0-0.1-1.5-0.2-1.7c-0.1-0.5-0.2-1.6-0.2-1.6S12.7,3.1,9,3.1c-2.6,0-4.8,0.8-6.3,2.3
			C1.2,7,0.5,8.9,0.5,11c0,1.5,0.4,2.8,1.1,3.9c0.7,1.1,1.7,2,2.9,2.6c1.2,0.6,2.6,0.9,4.1,0.9c0.9,0,1.8-0.1,2.7-0.3
			c0.9-0.2,1.8-0.6,2.7-1c0.9-0.5,1.3-0.7,1.3-0.8c0-0.1,0-0.3,0-0.8C15.5,13.5,15.6,11.1,15.6,11.1z"/>
	</g>
	<path d="M77.9,8.1c-0.7,0-1.4,0.4-2.3,1.2c-0.7-0.7-1.7-1-2.9-1c-2.4,0-4.5,1.3-4.5,3.7c0,1.4,0.8,2.4,1.9,2.9
		c-0.8,0.3-1.6,0.9-1.6,1.8c0,0.9,0.6,1.6,1.7,1.9c-1.8,0.6-2.7,1.6-2.7,2.8c0,1.2,1,2.7,4.5,2.7c3.6,0,6.3-1.5,6.3-4.2
		c0-1.4-1.5-2.6-4.2-2.6c-3.1,0-3.9-0.3-3.9-0.9c0-0.6,0.5-1,1.9-1.2c1.1-0.1,1.9-0.3,2.4-0.5c1.3-0.5,2.1-1.6,2.1-3.2
		c0-0.6-0.2-1.2-0.5-1.7c0.2-0.1,0.5-0.2,0.7-0.3c0.4-0.2,1-0.3,1.7-0.3c0.6,0,0.5,0,0.5-0.6C79,8.1,79,8.1,77.9,8.1z M73.2,19
		c2.1,0,3.4,0.6,3.4,1.6c0,1.1-1.7,2.2-4.2,2.2c-1.8,0-3.1-0.6-3.1-1.7C69.3,20,70.9,19,73.2,19z M72.6,14.3c-1.1,0-2.1-0.9-2.1-2.6
		c0-1.4,0.7-2.4,1.8-2.4c1.1,0,2,0.9,2,2.6C74.2,13.4,73.6,14.3,72.6,14.3z"/>
	<path d="M175,8.4c0,0,2,0,2.9,0c0.3,0,0.6,0.1,0.6,0.5c0,0.3-0.3,0.5-0.6,0.5c-0.4,0-2.9,0-2.9,0v5.2c0,0.7,0,1.1,0.1,1.4
		c0.1,0.3,0.3,0.5,0.5,0.7c0.3,0.2,0.8,0.3,1.2,0.3c0.7,0,1.2-0.1,1.5-0.3c0.1-0.1,0.2-0.1,0.2-0.1c0.1,0,0.2,0.1,0.2,0.2
		c0,0.2-0.3,0.5-0.9,0.9c-0.6,0.4-1.3,0.6-2.1,0.6c-2.1,0-3.1-1.1-3.1-3.2c0-1.7,0-5.7,0-5.7s-1.2,0-1.6,0c-0.3,0-0.5-0.1-0.5-0.3
		c0-0.1,0.1-0.2,0.3-0.3c1.6-0.5,2.8-1.7,3.4-3.1c0.1-0.2,0.2-0.3,0.3-0.3c0.2,0,0.3,0.2,0.3,0.5V8.4z"/>
</g>
</svg>
